<svg width="851" height="451" viewBox="0 0 851 451" fill="none" xmlns="http://www.w3.org/2000/svg">
<rect x="0.5" y="0.722656" width="850" height="450" rx="40" fill="#F7F7F7"/>
<path d="M436.879 101.818C436.485 100.978 435.514 100.081 433.923 100.099H401.681C401.627 100.099 400.864 100.096 400.033 100.508C399.198 100.899 398.303 101.875 398.317 103.465V259.531C398.323 259.588 398.317 260.353 398.733 261.185C399.119 262.014 400.069 262.904 401.627 262.904H401.681H433.923C433.974 262.896 434.737 262.904 435.571 262.492C436.41 262.097 437.305 261.131 437.284 259.531V103.465C437.284 103.415 437.29 102.65 436.879 101.818H436.879ZM386.946 199.833C386.43 199.349 385.538 198.969 384.066 198.969H350.079C349.921 198.969 349.767 199.04 349.653 199.152C349.541 199.263 349.473 199.417 349.473 199.579V206.609C349.479 216.579 348.764 223.707 346.611 228.207C344.44 232.686 341.026 234.689 335.004 234.725C327.402 234.671 323.855 230.989 321.849 222.325C319.907 213.676 319.896 200.218 319.9 181.509V178.523C319.897 160.873 319.957 148.222 321.924 140.104C323.955 131.986 327.481 128.551 335.004 128.498C340.696 128.515 344.204 130.594 346.518 134.875C348.825 139.178 349.785 145.81 349.875 154.704C349.878 154.761 349.88 155.525 350.301 156.358C350.702 157.194 351.677 158.091 353.264 158.07H386.821C386.982 158.07 387.136 158.005 387.247 157.894C387.362 157.776 387.423 157.621 387.423 157.46V155.974C387.423 136.53 383.059 121.787 374.186 111.899C365.312 102.008 351.992 97.0664 334.37 97.0664C313.856 97.0578 298.925 104.172 289.9 118.191C281.894 130.579 280.89 151.276 280.873 181.509C280.89 211.727 281.894 232.428 289.9 244.813C299.136 259.036 314.046 265.934 334.947 265.934H335.004C352.834 265.937 366.05 261.157 374.766 251.424C383.486 241.687 387.641 227.106 387.641 207.668C387.641 204.901 387.641 202.364 387.538 200.925C387.526 200.835 387.459 200.308 386.947 199.834L386.946 199.833ZM252.646 176.625C252.646 176.625 252.42 176.499 252.184 176.287C251.944 176.061 251.776 175.788 251.783 175.573C251.783 175.383 251.862 175.067 252.417 174.604C262.652 165.984 267.918 155.439 267.904 141.317C267.918 125.483 261.796 113.608 250.017 106.634C239.305 100.289 226.326 100.106 209.384 100.099H164.714C164.664 100.099 164.316 100.113 163.854 100.228C163.525 100.304 163.331 100.634 163.406 100.957L181.222 178.634C181.234 178.67 181.555 179.765 181.552 181.243C181.552 181.979 181.473 182.797 181.229 183.619L163.328 261.566C163.328 261.56 163.263 261.749 163.124 262.015C163.027 262.198 163.038 262.427 163.144 262.61C163.251 262.794 163.452 262.905 163.663 262.905H213.671C233.615 262.905 247.579 261.627 258.08 250.681C266.781 241.741 272.187 228.268 272.195 213.303C272.2 195.513 264.793 182.787 252.645 176.625H252.646ZM207.201 130.109C207.201 130.109 207.201 129.449 207.276 128.785C207.312 128.462 207.373 128.132 207.441 127.927C207.456 127.888 207.47 127.852 207.48 127.823C208.082 127.748 209.279 127.741 210.454 127.748C223.347 127.816 229.946 133.888 230.011 144.759C229.914 157.812 223.397 163.166 208.953 163.27H207.201V130.109V130.109ZM209.809 233.106H207.201V194.576C207.201 194.567 207.201 193.901 207.248 193.245C207.276 192.936 207.312 192.627 207.359 192.423H209.164C225.791 192.527 232.92 198.129 233.013 211.587C232.927 225.943 225.49 233.016 209.809 233.106" fill="#8DC63F"/>
<path d="M505.872 246.677H509.812V212.199H505.872V246.677ZM517.45 246.677H521.068V229.207C521.068 225.675 523.175 223.565 526.331 223.565C528.807 223.565 529.946 224.947 529.946 227.742V246.677H533.564V228.015C533.564 222.786 532.142 220.356 527.295 220.356C524.228 220.356 522.075 221.595 520.836 224.118V220.909H517.45V246.677ZM540.751 246.677H544.459V220.909H540.751V246.677ZM540.751 216.872H544.459V212.195H540.751V216.872ZM555.858 241.362V223.888H560.024V220.909H555.858V214.026H552.329V220.909H548.761V223.888H552.329V243.103C552.329 245.855 553.981 247.187 557.37 247.187C557.918 247.187 558.831 247.14 560.024 247.09V243.928C559.702 243.971 559.43 243.971 559.193 243.971C556.542 243.971 555.858 243.699 555.858 241.362V241.362ZM564.782 246.677H568.486V220.909H564.782V246.677ZM564.782 216.872H568.486V212.195H564.782V216.872ZM592.478 246.724V243.971C592.249 244.018 592.066 244.068 591.884 244.068C590.827 244.068 590.368 243.515 590.368 242.184V227.1C590.368 222.284 588.176 220.173 583.321 220.173C578.102 220.173 575.813 222.467 575.723 227.742H579.112V227.279C579.112 224.484 580.348 223.202 582.906 223.202C585.467 223.202 586.707 224.071 586.707 226.228V228.611C586.707 230.398 585.704 230.721 582.677 231.726C577.464 233.47 575.035 234.852 575.035 240.171C575.035 244.707 577.231 247.32 580.943 247.32C583.78 247.32 585.929 245.898 587.029 243.243C587.119 245.626 588.358 246.957 590.368 246.957C591.009 246.957 591.697 246.864 592.478 246.724V246.724ZM586.796 232.785V237.874C586.796 241.818 584.787 244.154 581.899 244.154C579.843 244.154 578.653 242.686 578.653 240.12C578.653 236.686 579.932 235.86 582.677 234.891C584.468 234.256 585.879 233.793 586.796 232.785ZM602.137 241.362V223.888H606.303V220.909H602.137V214.025H598.608V220.909H595.04V223.888H598.608V243.103C598.608 245.855 600.259 247.187 603.645 247.187C604.197 247.187 605.114 247.14 606.303 247.09V243.928C605.981 243.971 605.708 243.971 605.479 243.971C602.821 243.971 602.137 243.698 602.137 241.362V241.362ZM611.064 246.677H614.772V220.909H611.064V246.677ZM611.064 216.872H614.772V212.195H611.064V216.872ZM626.988 246.677H630.879L638.022 220.909H634.272L629.005 241.132L623.972 220.909H620.035L626.988 246.677ZM655.143 237.963V238.147C655.143 242.051 653.495 244.341 651.023 244.341C647.681 244.341 646.355 241.316 646.355 235.082V233.933H658.715C658.761 233.154 658.761 232.419 658.761 231.683C658.761 223.978 656.243 220.174 650.84 220.174C645.069 220.174 642.647 224.667 642.647 234.066C642.647 243.06 645.166 247.37 650.751 247.37C655.781 247.37 658.622 244.068 658.668 237.964H655.143L655.143 237.963ZM646.355 230.997C646.355 225.725 647.821 223.152 650.934 223.152C653.674 223.152 655.097 225.535 655.097 230.308V230.997H646.355V230.997Z" fill="#8DC63F"/>
<path d="M522.166 185.001V185.553C522.166 191.561 519.923 194.82 516.079 194.82C510.952 194.82 509.254 190.273 509.254 180.507C509.254 170.423 510.952 165.739 515.846 165.739C519.604 165.739 522.029 168.492 522.029 173.308H525.737V172.895C525.737 166.109 522.166 162.348 515.896 162.348C508.208 162.348 505.185 168.029 505.185 180.507C505.185 192.613 508.43 198.488 515.62 198.488C522.216 198.488 525.873 193.804 525.967 185.001H522.166ZM536.356 184.771C536.356 177.712 537.495 174.317 541.525 174.317C545.466 174.317 546.706 177.618 546.706 184.771C546.706 191.967 545.42 195.276 541.525 195.276C537.545 195.276 536.356 191.967 536.356 184.771V184.771ZM532.515 184.771C532.515 194.084 535.217 198.348 541.525 198.348C547.845 198.348 550.596 194.037 550.596 184.771C550.596 175.558 547.802 171.151 541.525 171.151C535.349 171.151 532.515 175.652 532.515 184.771V184.771ZM561.304 192.34V174.866H565.471V171.887H561.304V165.011H557.779V171.887H554.204V174.866H557.779V194.084C557.779 196.833 559.423 198.165 562.82 198.165C563.364 198.165 564.278 198.114 565.471 198.075V194.906C565.148 194.953 564.876 194.953 564.643 194.953C561.992 194.953 561.304 194.68 561.304 192.34V192.34ZM574.395 192.34V174.866H578.561V171.887H574.395V165.011H570.873V171.887H567.305V174.866H570.873V194.084C570.873 196.833 572.517 198.165 575.907 198.165C576.455 198.165 577.372 198.115 578.561 198.075V194.906C578.239 194.953 577.966 194.953 577.737 194.953C575.083 194.953 574.395 194.68 574.395 192.34V192.34ZM586.478 184.772C586.478 177.712 587.621 174.317 591.652 174.317C595.589 174.317 596.825 177.619 596.825 184.772C596.825 191.967 595.542 195.276 591.652 195.276C587.671 195.276 586.478 191.967 586.478 184.772ZM582.634 184.772C582.634 194.085 585.336 198.348 591.652 198.348C597.971 198.348 600.715 194.038 600.715 184.772C600.715 175.559 597.921 171.152 591.652 171.152C585.472 171.152 582.634 175.652 582.634 184.772V184.772ZM607.307 197.659H610.922V180.185C610.922 176.653 613.028 174.55 616.188 174.55C618.664 174.55 619.803 175.925 619.803 178.721V197.659H623.421V178.993C623.421 173.764 622.002 171.331 617.152 171.331C614.082 171.331 611.932 172.573 610.696 175.096V171.887H607.307V197.659V197.659Z" fill="#8DC63F"/>
<path d="M505.87 148.634H515.209C521.529 148.634 525.143 145.059 525.143 138.729C525.143 133.873 523.313 131.117 519.282 130.291C522.489 129.372 524.04 126.896 524.04 122.769C524.04 116.671 521.206 114.148 514.844 114.148H505.87V148.634V148.634ZM509.578 145.242V131.992H513.791C519.053 131.992 521.067 133.823 521.067 138.912C521.067 143.412 519.146 145.242 514.475 145.242H509.578ZM509.578 128.823V117.224H513.379C518.186 117.224 520.149 118.505 520.149 122.866C520.149 127.359 518.276 128.823 513.608 128.823H509.578ZM543.909 139.92V140.103C543.909 144.001 542.261 146.294 539.792 146.294C536.45 146.294 535.121 143.272 535.121 137.035V135.89H547.48C547.527 135.104 547.527 134.375 547.527 133.64C547.527 125.938 545.008 122.13 539.606 122.13C533.845 122.13 531.413 126.624 531.413 136.023C531.413 145.009 533.931 149.327 539.52 149.327C544.55 149.327 547.387 146.025 547.441 139.92H543.908L543.909 139.92ZM535.121 132.954C535.121 127.682 536.586 125.109 539.699 125.109C542.447 125.109 543.862 127.492 543.862 132.265V132.954H535.121V132.954ZM558.238 143.315V125.845H562.398V122.866H558.238V115.982H554.713V122.866H551.142V125.845H554.713V145.059C554.713 147.808 556.361 149.14 559.747 149.14C560.298 149.14 561.208 149.097 562.398 149.047V145.885C562.082 145.928 561.803 145.928 561.577 145.928C558.93 145.928 558.238 145.655 558.238 143.315V143.315ZM571.325 143.315V125.845H575.492V122.866H571.325V115.982H567.804V122.866H564.232V125.845H567.804V145.059C567.804 147.808 569.452 149.14 572.837 149.14C573.392 149.14 574.31 149.097 575.492 149.047V145.885C575.173 145.928 574.897 145.928 574.671 145.928C572.017 145.928 571.325 145.655 571.325 143.315V143.315ZM592.068 139.92V140.103C592.068 144.001 590.416 146.294 587.944 146.294C584.602 146.294 583.277 143.272 583.277 137.035V135.89H595.636C595.675 135.104 595.675 134.375 595.675 133.64C595.675 125.938 593.164 122.13 587.762 122.13C581.994 122.13 579.568 126.624 579.568 136.023C579.568 145.009 582.08 149.327 587.668 149.327C592.702 149.327 595.543 146.025 595.589 139.92H592.068L592.068 139.92ZM583.277 132.954C583.277 127.682 584.742 125.109 587.855 125.109C590.603 125.109 592.018 127.492 592.018 132.265V132.954H583.277V132.954ZM602.271 148.634H605.843V132.861C605.843 128.364 608.082 125.888 611.704 125.888C612.252 125.888 612.707 125.985 613.119 126.211V122.356C612.574 122.27 612.073 122.27 611.564 122.27C608.909 122.27 606.667 124.011 605.613 127.086V122.866H602.271V148.634V148.634Z" fill="#8DC63F"/>
<path d="M655.271 262.421H464.245L484.647 184.026C484.873 183.179 484.948 182.303 484.948 181.517C484.948 179.949 484.655 178.797 484.655 178.79L464.686 102.063L465.567 101.833L464.686 102.063L464.392 100.922H655.271C655.346 100.928 663.396 100.916 671.553 104.902C679.714 108.864 687.975 117.065 687.943 132.956V230.394C687.94 230.466 687.949 238.365 683.873 246.361C679.832 254.361 671.499 262.421 655.364 262.421H655.271V262.421ZM486.414 178.334C486.425 178.384 486.768 179.708 486.768 181.517C486.768 182.422 486.682 183.444 486.41 184.496L466.602 260.598H655.271C678.532 260.562 684.106 243.712 685.643 235.099C686.123 232.253 686.123 230.394 686.123 230.394V132.956C686.097 110.21 668.895 104.73 660.085 103.222C657.173 102.745 655.278 102.752 655.271 102.752H466.749L486.414 178.334V178.334Z" fill="#8DC63F"/>
<path d="M160.324 400.48V371.574H167.824C170.715 371.574 172.928 372.121 174.465 373.215C176.014 374.309 176.789 375.884 176.789 377.941C176.789 381.444 174.81 383.938 170.852 385.422C175.578 386.867 177.941 389.478 177.941 393.254C177.941 395.598 177.16 397.388 175.598 398.625C174.035 399.862 171.783 400.48 168.84 400.48H160.324ZM164.387 397.414H165.227C168.234 397.414 170.181 397.225 171.066 396.848C172.759 396.132 173.605 394.803 173.605 392.863C173.605 391.145 172.837 389.719 171.301 388.586C169.764 387.44 167.844 386.867 165.539 386.867H164.387V397.414ZM164.387 384.27H165.695C167.883 384.27 169.576 383.801 170.773 382.863C171.984 381.926 172.59 380.604 172.59 378.898C172.59 376.06 170.389 374.641 165.988 374.641H164.387V384.27ZM198.996 399.797C196.418 400.578 194.211 400.969 192.375 400.969C189.25 400.969 186.698 399.934 184.719 397.863C182.753 395.78 181.77 393.085 181.77 389.777C181.77 386.561 182.635 383.924 184.367 381.867C186.112 379.81 188.339 378.781 191.047 378.781C193.612 378.781 195.591 379.693 196.984 381.516C198.391 383.339 199.094 385.93 199.094 389.289L199.074 390.48H185.695C186.255 395.52 188.723 398.039 193.098 398.039C194.699 398.039 196.665 397.609 198.996 396.75V399.797ZM185.871 387.59H195.227C195.227 383.645 193.755 381.672 190.812 381.672C187.857 381.672 186.21 383.645 185.871 387.59ZM212.121 400.969C210.168 400.969 208.645 400.409 207.551 399.289C206.457 398.169 205.91 396.613 205.91 394.621V382.16H203.254V379.27H205.91V375.422L209.758 375.051V379.27H215.305V382.16H209.758V393.918C209.758 396.691 210.956 398.078 213.352 398.078C213.859 398.078 214.478 397.993 215.207 397.824V400.48C214.022 400.806 212.993 400.969 212.121 400.969ZM227.082 400.969C225.129 400.969 223.605 400.409 222.512 399.289C221.418 398.169 220.871 396.613 220.871 394.621V382.16H218.215V379.27H220.871V375.422L224.719 375.051V379.27H230.266V382.16H224.719V393.918C224.719 396.691 225.917 398.078 228.312 398.078C228.82 398.078 229.439 397.993 230.168 397.824V400.48C228.983 400.806 227.954 400.969 227.082 400.969ZM251.223 399.797C248.645 400.578 246.438 400.969 244.602 400.969C241.477 400.969 238.924 399.934 236.945 397.863C234.979 395.78 233.996 393.085 233.996 389.777C233.996 386.561 234.862 383.924 236.594 381.867C238.339 379.81 240.565 378.781 243.273 378.781C245.839 378.781 247.818 379.693 249.211 381.516C250.617 383.339 251.32 385.93 251.32 389.289L251.301 390.48H237.922C238.482 395.52 240.949 398.039 245.324 398.039C246.926 398.039 248.892 397.609 251.223 396.75V399.797ZM238.098 387.59H247.453C247.453 383.645 245.982 381.672 243.039 381.672C240.083 381.672 238.436 383.645 238.098 387.59ZM257.98 400.48V379.27H261.828V383.254C263.352 380.285 265.565 378.801 268.469 378.801C268.859 378.801 269.27 378.833 269.699 378.898V382.492C269.035 382.271 268.449 382.16 267.941 382.16C265.507 382.16 263.469 383.605 261.828 386.496V400.48H257.98ZM299.27 401.203C294.777 401.203 291.307 399.888 288.859 397.258C286.411 394.615 285.188 390.878 285.188 386.047C285.188 381.229 286.431 377.492 288.918 374.836C291.418 372.18 294.934 370.852 299.465 370.852C302.056 370.852 305.09 371.275 308.566 372.121V375.969C304.608 374.602 301.555 373.918 299.406 373.918C296.268 373.918 293.84 374.979 292.121 377.102C290.402 379.224 289.543 382.219 289.543 386.086C289.543 389.771 290.461 392.681 292.297 394.816C294.133 396.939 296.639 398 299.816 398C302.551 398 305.48 397.16 308.605 395.48V398.996C305.754 400.467 302.642 401.203 299.27 401.203ZM323 400.969C319.966 400.969 317.544 399.966 315.734 397.961C313.924 395.943 313.02 393.247 313.02 389.875C313.02 386.464 313.924 383.768 315.734 381.789C317.557 379.797 320.025 378.801 323.137 378.801C326.249 378.801 328.71 379.797 330.52 381.789C332.342 383.768 333.254 386.451 333.254 389.836C333.254 393.299 332.342 396.021 330.52 398C328.697 399.979 326.19 400.969 323 400.969ZM323.059 398.078C327.134 398.078 329.172 395.331 329.172 389.836C329.172 384.406 327.16 381.691 323.137 381.691C319.126 381.691 317.121 384.419 317.121 389.875C317.121 395.344 319.1 398.078 323.059 398.078ZM345.637 400.969C343.684 400.969 342.16 400.409 341.066 399.289C339.973 398.169 339.426 396.613 339.426 394.621V382.16H336.77V379.27H339.426V375.422L343.273 375.051V379.27H348.82V382.16H343.273V393.918C343.273 396.691 344.471 398.078 346.867 398.078C347.375 398.078 347.993 397.993 348.723 397.824V400.48C347.538 400.806 346.509 400.969 345.637 400.969ZM360.598 400.969C358.645 400.969 357.121 400.409 356.027 399.289C354.934 398.169 354.387 396.613 354.387 394.621V382.16H351.73V379.27H354.387V375.422L358.234 375.051V379.27H363.781V382.16H358.234V393.918C358.234 396.691 359.432 398.078 361.828 398.078C362.336 398.078 362.954 397.993 363.684 397.824V400.48C362.499 400.806 361.47 400.969 360.598 400.969ZM377.492 400.969C374.458 400.969 372.036 399.966 370.227 397.961C368.417 395.943 367.512 393.247 367.512 389.875C367.512 386.464 368.417 383.768 370.227 381.789C372.049 379.797 374.517 378.801 377.629 378.801C380.741 378.801 383.202 379.797 385.012 381.789C386.835 383.768 387.746 386.451 387.746 389.836C387.746 393.299 386.835 396.021 385.012 398C383.189 399.979 380.682 400.969 377.492 400.969ZM377.551 398.078C381.626 398.078 383.664 395.331 383.664 389.836C383.664 384.406 381.652 381.691 377.629 381.691C373.618 381.691 371.613 384.419 371.613 389.875C371.613 395.344 373.592 398.078 377.551 398.078ZM393.762 400.48V379.27H397.609V383.254C399.641 380.285 402.128 378.801 405.07 378.801C406.906 378.801 408.371 379.387 409.465 380.559C410.559 381.717 411.105 383.28 411.105 385.246V400.48H407.258V386.496C407.258 384.921 407.023 383.801 406.555 383.137C406.099 382.46 405.337 382.121 404.27 382.121C401.913 382.121 399.693 383.664 397.609 386.75V400.48H393.762ZM431.125 400.48V371.574H435.227V400.48H431.125ZM442.785 400.48V379.27H446.633V383.254C448.664 380.285 451.151 378.801 454.094 378.801C455.93 378.801 457.395 379.387 458.488 380.559C459.582 381.717 460.129 383.28 460.129 385.246V400.48H456.281V386.496C456.281 384.921 456.047 383.801 455.578 383.137C455.122 382.46 454.361 382.121 453.293 382.121C450.936 382.121 448.716 383.664 446.633 386.75V400.48H442.785ZM467.629 400.48V379.27H471.477V400.48H467.629ZM467.629 375.422V371.574H471.477V375.422H467.629ZM485.559 400.969C483.605 400.969 482.082 400.409 480.988 399.289C479.895 398.169 479.348 396.613 479.348 394.621V382.16H476.691V379.27H479.348V375.422L483.195 375.051V379.27H488.742V382.16H483.195V393.918C483.195 396.691 484.393 398.078 486.789 398.078C487.297 398.078 487.915 397.993 488.645 397.824V400.48C487.46 400.806 486.431 400.969 485.559 400.969ZM494.152 400.48V379.27H498V400.48H494.152ZM494.152 375.422V371.574H498V375.422H494.152ZM516.652 397.785C514.348 399.908 512.128 400.969 509.992 400.969C508.234 400.969 506.776 400.422 505.617 399.328C504.458 398.221 503.879 396.828 503.879 395.148C503.879 392.831 504.849 391.053 506.789 389.816C508.742 388.566 511.535 387.941 515.168 387.941H516.086V385.383C516.086 382.922 514.823 381.691 512.297 381.691C510.266 381.691 508.072 382.316 505.715 383.566V380.383C508.306 379.328 510.734 378.801 513 378.801C515.37 378.801 517.115 379.335 518.234 380.402C519.367 381.47 519.934 383.13 519.934 385.383V394.992C519.934 397.193 520.611 398.293 521.965 398.293C522.134 398.293 522.382 398.267 522.707 398.215L522.98 400.344C522.108 400.76 521.145 400.969 520.09 400.969C518.293 400.969 517.147 399.908 516.652 397.785ZM516.086 395.695V390.207L514.797 390.168C512.688 390.168 510.982 390.572 509.68 391.379C508.378 392.173 507.727 393.221 507.727 394.523C507.727 395.448 508.052 396.229 508.703 396.867C509.354 397.505 510.148 397.824 511.086 397.824C512.688 397.824 514.354 397.115 516.086 395.695ZM534.191 400.969C532.238 400.969 530.715 400.409 529.621 399.289C528.527 398.169 527.98 396.613 527.98 394.621V382.16H525.324V379.27H527.98V375.422L531.828 375.051V379.27H537.375V382.16H531.828V393.918C531.828 396.691 533.026 398.078 535.422 398.078C535.93 398.078 536.548 397.993 537.277 397.824V400.48C536.092 400.806 535.064 400.969 534.191 400.969ZM542.785 400.48V379.27H546.633V400.48H542.785ZM542.785 375.422V371.574H546.633V375.422H542.785ZM558.742 400.48L550.852 379.27H554.699L560.871 395.773L567.375 379.27H570.969L562.59 400.48H558.742ZM590.598 399.797C588.02 400.578 585.812 400.969 583.977 400.969C580.852 400.969 578.299 399.934 576.32 397.863C574.354 395.78 573.371 393.085 573.371 389.777C573.371 386.561 574.237 383.924 575.969 381.867C577.714 379.81 579.94 378.781 582.648 378.781C585.214 378.781 587.193 379.693 588.586 381.516C589.992 383.339 590.695 385.93 590.695 389.289L590.676 390.48H577.297C577.857 395.52 580.324 398.039 584.699 398.039C586.301 398.039 588.267 397.609 590.598 396.75V399.797ZM577.473 387.59H586.828C586.828 383.645 585.357 381.672 582.414 381.672C579.458 381.672 577.811 383.645 577.473 387.59ZM617.727 403.605V406.262C614.914 404.348 612.681 401.75 611.027 398.469C609.387 395.174 608.566 391.665 608.566 387.941C608.566 384.23 609.387 380.734 611.027 377.453C612.681 374.159 614.914 371.555 617.727 369.641V372.297C615.812 374.38 614.445 376.62 613.625 379.016C612.818 381.411 612.414 384.387 612.414 387.941C612.414 391.509 612.818 394.491 613.625 396.887C614.445 399.283 615.812 401.522 617.727 403.605ZM622.902 400.48V371.574H630.402C633.293 371.574 635.507 372.121 637.043 373.215C638.592 374.309 639.367 375.884 639.367 377.941C639.367 381.444 637.388 383.938 633.43 385.422C638.156 386.867 640.52 389.478 640.52 393.254C640.52 395.598 639.738 397.388 638.176 398.625C636.613 399.862 634.361 400.48 631.418 400.48H622.902ZM626.965 397.414H627.805C630.812 397.414 632.759 397.225 633.645 396.848C635.337 396.132 636.184 394.803 636.184 392.863C636.184 391.145 635.415 389.719 633.879 388.586C632.342 387.44 630.422 386.867 628.117 386.867H626.965V397.414ZM626.965 384.27H628.273C630.461 384.27 632.154 383.801 633.352 382.863C634.562 381.926 635.168 380.604 635.168 378.898C635.168 376.06 632.967 374.641 628.566 374.641H626.965V384.27ZM658.293 401.203C653.801 401.203 650.331 399.888 647.883 397.258C645.435 394.615 644.211 390.878 644.211 386.047C644.211 381.229 645.454 377.492 647.941 374.836C650.441 372.18 653.957 370.852 658.488 370.852C661.079 370.852 664.113 371.275 667.59 372.121V375.969C663.632 374.602 660.578 373.918 658.43 373.918C655.292 373.918 652.863 374.979 651.145 377.102C649.426 379.224 648.566 382.219 648.566 386.086C648.566 389.771 649.484 392.681 651.32 394.816C653.156 396.939 655.663 398 658.84 398C661.574 398 664.504 397.16 667.629 395.48V398.996C664.777 400.467 661.665 401.203 658.293 401.203ZM673.586 400.48V371.574H677.688V400.48H673.586ZM682.844 403.605V406.262C685.656 404.348 687.883 401.75 689.523 398.469C691.177 395.174 692.004 391.665 692.004 387.941C692.004 384.23 691.177 380.734 689.523 377.453C687.883 374.159 685.656 371.555 682.844 369.641V372.297C684.758 374.38 686.118 376.62 686.926 379.016C687.746 381.411 688.156 384.387 688.156 387.941C688.156 391.509 687.746 394.491 686.926 396.887C686.118 399.283 684.758 401.522 682.844 403.605Z" fill="#B2BAA3"/>
</svg>
