<svg width="851" height="451" viewBox="0 0 851 451" fill="none" xmlns="http://www.w3.org/2000/svg">
<rect x="0.900269" y="0.722656" width="850" height="450" rx="40" fill="#F7F7F7"/>
<path d="M53.576 382.98V354.074H61.076C63.9667 354.074 66.1802 354.621 67.7167 355.715C69.2662 356.809 70.0409 358.384 70.0409 360.441C70.0409 363.944 68.0617 366.438 64.1034 367.922C68.83 369.367 71.1932 371.978 71.1932 375.754C71.1932 378.098 70.412 379.888 68.8495 381.125C67.287 382.362 65.0344 382.98 62.0917 382.98H53.576ZM57.6385 379.914H58.4784C61.4862 379.914 63.4328 379.725 64.3182 379.348C66.0109 378.632 66.8573 377.303 66.8573 375.363C66.8573 373.645 66.0891 372.219 64.5526 371.086C63.0162 369.94 61.0956 369.367 58.7909 369.367H57.6385V379.914ZM57.6385 366.77H58.9471C61.1346 366.77 62.8274 366.301 64.0253 365.363C65.2362 364.426 65.8417 363.104 65.8417 361.398C65.8417 358.56 63.6412 357.141 59.2401 357.141H57.6385V366.77ZM89.9628 382.98V378.996C87.9185 381.978 85.438 383.469 82.5214 383.469C80.6724 383.469 79.201 382.889 78.1073 381.73C77.0135 380.559 76.4667 378.983 76.4667 377.004V361.77H80.3143V375.754C80.3143 377.342 80.5422 378.475 80.9979 379.152C81.4667 379.816 82.2414 380.148 83.3221 380.148C85.6659 380.148 87.8794 378.605 89.9628 375.52V361.77H93.8104V382.98H89.9628ZM107.17 383.469C105.412 383.469 103.277 383.059 100.764 382.238V378.703C103.277 379.953 105.464 380.578 107.326 380.578C108.433 380.578 109.351 380.279 110.08 379.68C110.809 379.081 111.174 378.332 111.174 377.434C111.174 376.118 110.152 375.031 108.107 374.172L105.861 373.215C102.541 371.835 100.881 369.849 100.881 367.258C100.881 365.409 101.532 363.957 102.834 362.902C104.149 361.835 105.946 361.301 108.224 361.301C109.409 361.301 110.874 361.464 112.619 361.789L113.42 361.945V365.148C111.271 364.51 109.566 364.191 108.303 364.191C105.829 364.191 104.592 365.09 104.592 366.887C104.592 368.046 105.529 369.022 107.404 369.816L109.26 370.598C111.356 371.483 112.84 372.421 113.713 373.41C114.585 374.387 115.021 375.611 115.021 377.082C115.021 378.944 114.286 380.474 112.814 381.672C111.343 382.87 109.461 383.469 107.17 383.469ZM121.935 382.98V361.77H125.783V382.98H121.935ZM121.935 357.922V354.074H125.783V357.922H121.935ZM133.498 382.98V361.77H137.346V365.754C139.377 362.785 141.864 361.301 144.807 361.301C146.642 361.301 148.107 361.887 149.201 363.059C150.295 364.217 150.842 365.78 150.842 367.746V382.98H146.994V368.996C146.994 367.421 146.76 366.301 146.291 365.637C145.835 364.96 145.073 364.621 144.006 364.621C141.649 364.621 139.429 366.164 137.346 369.25V382.98H133.498ZM173.889 382.297C171.31 383.078 169.103 383.469 167.267 383.469C164.142 383.469 161.59 382.434 159.611 380.363C157.645 378.28 156.662 375.585 156.662 372.277C156.662 369.061 157.528 366.424 159.26 364.367C161.004 362.31 163.231 361.281 165.939 361.281C168.504 361.281 170.484 362.193 171.877 364.016C173.283 365.839 173.986 368.43 173.986 371.789L173.967 372.98H160.588C161.148 378.02 163.615 380.539 167.99 380.539C169.592 380.539 171.558 380.109 173.889 379.25V382.297ZM160.764 370.09H170.119C170.119 366.145 168.648 364.172 165.705 364.172C162.749 364.172 161.102 366.145 160.764 370.09ZM186.271 383.469C184.514 383.469 182.378 383.059 179.865 382.238V378.703C182.378 379.953 184.566 380.578 186.428 380.578C187.534 380.578 188.452 380.279 189.182 379.68C189.911 379.081 190.275 378.332 190.275 377.434C190.275 376.118 189.253 375.031 187.209 374.172L184.963 373.215C181.642 371.835 179.982 369.849 179.982 367.258C179.982 365.409 180.633 363.957 181.935 362.902C183.251 361.835 185.047 361.301 187.326 361.301C188.511 361.301 189.976 361.464 191.721 361.789L192.521 361.945V365.148C190.373 364.51 188.667 364.191 187.404 364.191C184.93 364.191 183.693 365.09 183.693 366.887C183.693 368.046 184.631 369.022 186.506 369.816L188.361 370.598C190.458 371.483 191.942 372.421 192.814 373.41C193.687 374.387 194.123 375.611 194.123 377.082C194.123 378.944 193.387 380.474 191.916 381.672C190.445 382.87 188.563 383.469 186.271 383.469ZM206.662 383.469C204.904 383.469 202.769 383.059 200.256 382.238V378.703C202.769 379.953 204.956 380.578 206.818 380.578C207.925 380.578 208.843 380.279 209.572 379.68C210.301 379.081 210.666 378.332 210.666 377.434C210.666 376.118 209.644 375.031 207.599 374.172L205.353 373.215C202.033 371.835 200.373 369.849 200.373 367.258C200.373 365.409 201.024 363.957 202.326 362.902C203.641 361.835 205.438 361.301 207.717 361.301C208.902 361.301 210.366 361.464 212.111 361.789L212.912 361.945V365.148C210.764 364.51 209.058 364.191 207.795 364.191C205.321 364.191 204.084 365.09 204.084 366.887C204.084 368.046 205.021 369.022 206.896 369.816L208.752 370.598C210.848 371.483 212.333 372.421 213.205 373.41C214.077 374.387 214.514 375.611 214.514 377.082C214.514 378.944 213.778 380.474 212.307 381.672C210.835 382.87 208.954 383.469 206.662 383.469ZM238.674 364.66V382.98H234.807V364.66H231.799V361.77H234.807V359.23C234.807 354.178 237.111 351.652 241.721 351.652C243.01 351.652 244.474 351.867 246.115 352.297V355.344C244.383 354.81 242.997 354.543 241.955 354.543C240.692 354.543 239.826 354.849 239.357 355.461C238.902 356.06 238.674 357.18 238.674 358.82V361.77H243.967V364.66H238.674ZM257.111 383.469C254.077 383.469 251.655 382.466 249.846 380.461C248.036 378.443 247.131 375.747 247.131 372.375C247.131 368.964 248.036 366.268 249.846 364.289C251.668 362.297 254.136 361.301 257.248 361.301C260.36 361.301 262.821 362.297 264.631 364.289C266.454 366.268 267.365 368.951 267.365 372.336C267.365 375.799 266.454 378.521 264.631 380.5C262.808 382.479 260.301 383.469 257.111 383.469ZM257.17 380.578C261.245 380.578 263.283 377.831 263.283 372.336C263.283 366.906 261.271 364.191 257.248 364.191C253.238 364.191 251.232 366.919 251.232 372.375C251.232 377.844 253.211 380.578 257.17 380.578ZM273.381 382.98V361.77H277.228V365.754C278.752 362.785 280.965 361.301 283.869 361.301C284.26 361.301 284.67 361.333 285.099 361.398V364.992C284.435 364.771 283.849 364.66 283.342 364.66C280.907 364.66 278.869 366.105 277.228 368.996V382.98H273.381ZM307.951 383.703C306.011 383.703 303.53 383.28 300.51 382.434V378.371C303.765 379.882 306.441 380.637 308.537 380.637C310.152 380.637 311.447 380.214 312.424 379.367C313.413 378.521 313.908 377.408 313.908 376.027C313.908 374.895 313.583 373.931 312.932 373.137C312.293 372.342 311.109 371.457 309.377 370.48L307.385 369.328C304.924 367.922 303.185 366.6 302.17 365.363C301.167 364.113 300.666 362.661 300.666 361.008C300.666 358.781 301.473 356.952 303.088 355.52C304.702 354.074 306.76 353.352 309.26 353.352C311.486 353.352 313.836 353.723 316.31 354.465V358.215C313.264 357.017 310.991 356.418 309.494 356.418C308.075 356.418 306.903 356.796 305.978 357.551C305.054 358.306 304.592 359.257 304.592 360.402C304.592 361.366 304.93 362.219 305.607 362.961C306.284 363.703 307.521 364.589 309.318 365.617L311.389 366.789C313.889 368.208 315.633 369.549 316.623 370.812C317.613 372.076 318.107 373.592 318.107 375.363C318.107 377.876 317.176 379.895 315.314 381.418C313.465 382.941 311.011 383.703 307.951 383.703ZM332.267 383.469C329.234 383.469 326.812 382.466 325.002 380.461C323.192 378.443 322.287 375.747 322.287 372.375C322.287 368.964 323.192 366.268 325.002 364.289C326.825 362.297 329.292 361.301 332.404 361.301C335.516 361.301 337.977 362.297 339.787 364.289C341.61 366.268 342.521 368.951 342.521 372.336C342.521 375.799 341.61 378.521 339.787 380.5C337.964 382.479 335.458 383.469 332.267 383.469ZM332.326 380.578C336.402 380.578 338.439 377.831 338.439 372.336C338.439 366.906 336.428 364.191 332.404 364.191C328.394 364.191 326.389 366.919 326.389 372.375C326.389 377.844 328.368 380.578 332.326 380.578ZM356.818 383.469C353.954 383.469 351.577 382.408 349.689 380.285C347.801 378.163 346.857 375.487 346.857 372.258C346.857 368.807 347.788 366.118 349.65 364.191C351.525 362.264 354.136 361.301 357.482 361.301C359.136 361.301 360.985 361.529 363.029 361.984V365.207C360.855 364.569 359.084 364.25 357.717 364.25C355.751 364.25 354.168 364.992 352.971 366.477C351.786 367.948 351.193 369.914 351.193 372.375C351.193 374.758 351.805 376.685 353.029 378.156C354.253 379.628 355.855 380.363 357.834 380.363C359.592 380.363 361.402 379.914 363.264 379.016V382.336C360.777 383.091 358.628 383.469 356.818 383.469ZM369.045 382.98V361.77H372.892V382.98H369.045ZM369.045 357.922V354.074H372.892V357.922H369.045ZM391.545 380.285C389.24 382.408 387.02 383.469 384.885 383.469C383.127 383.469 381.668 382.922 380.51 381.828C379.351 380.721 378.771 379.328 378.771 377.648C378.771 375.331 379.741 373.553 381.682 372.316C383.635 371.066 386.428 370.441 390.06 370.441H390.978V367.883C390.978 365.422 389.715 364.191 387.189 364.191C385.158 364.191 382.964 364.816 380.607 366.066V362.883C383.198 361.828 385.627 361.301 387.892 361.301C390.262 361.301 392.007 361.835 393.127 362.902C394.26 363.97 394.826 365.63 394.826 367.883V377.492C394.826 379.693 395.503 380.793 396.857 380.793C397.027 380.793 397.274 380.767 397.599 380.715L397.873 382.844C397.001 383.26 396.037 383.469 394.982 383.469C393.185 383.469 392.04 382.408 391.545 380.285ZM390.978 378.195V372.707L389.689 372.668C387.58 372.668 385.874 373.072 384.572 373.879C383.27 374.673 382.619 375.721 382.619 377.023C382.619 377.948 382.945 378.729 383.596 379.367C384.247 380.005 385.041 380.324 385.978 380.324C387.58 380.324 389.247 379.615 390.978 378.195ZM402.717 382.98V352.141H406.564V382.98H402.717ZM426.818 382.98V354.074H435.568C438.342 354.074 440.464 354.686 441.935 355.91C443.42 357.134 444.162 358.911 444.162 361.242C444.162 365.096 442.215 367.831 438.322 369.445L447.971 382.98H442.932L434.709 370.754H430.881V382.98H426.818ZM430.881 367.688H432.209C437.365 367.688 439.943 365.663 439.943 361.613C439.943 358.632 437.782 357.141 433.459 357.141H430.881V367.688ZM467.795 382.297C465.217 383.078 463.01 383.469 461.174 383.469C458.049 383.469 455.497 382.434 453.517 380.363C451.551 378.28 450.568 375.585 450.568 372.277C450.568 369.061 451.434 366.424 453.166 364.367C454.911 362.31 457.137 361.281 459.846 361.281C462.411 361.281 464.39 362.193 465.783 364.016C467.189 365.839 467.892 368.43 467.892 371.789L467.873 372.98H454.494C455.054 378.02 457.521 380.539 461.896 380.539C463.498 380.539 465.464 380.109 467.795 379.25V382.297ZM454.67 370.09H464.025C464.025 366.145 462.554 364.172 459.611 364.172C456.655 364.172 455.008 366.145 454.67 370.09ZM480.178 383.469C478.42 383.469 476.284 383.059 473.771 382.238V378.703C476.284 379.953 478.472 380.578 480.334 380.578C481.441 380.578 482.359 380.279 483.088 379.68C483.817 379.081 484.182 378.332 484.182 377.434C484.182 376.118 483.159 375.031 481.115 374.172L478.869 373.215C475.549 371.835 473.889 369.849 473.889 367.258C473.889 365.409 474.54 363.957 475.842 362.902C477.157 361.835 478.954 361.301 481.232 361.301C482.417 361.301 483.882 361.464 485.627 361.789L486.428 361.945V365.148C484.279 364.51 482.573 364.191 481.31 364.191C478.836 364.191 477.599 365.09 477.599 366.887C477.599 368.046 478.537 369.022 480.412 369.816L482.267 370.598C484.364 371.483 485.848 372.421 486.721 373.41C487.593 374.387 488.029 375.611 488.029 377.082C488.029 378.944 487.293 380.474 485.822 381.672C484.351 382.87 482.469 383.469 480.178 383.469ZM494.943 390.695V361.77H498.791V365.754C500.366 362.785 502.73 361.301 505.881 361.301C508.433 361.301 510.438 362.232 511.896 364.094C513.368 365.956 514.103 368.501 514.103 371.73C514.103 375.246 513.27 378.085 511.603 380.246C509.95 382.395 507.769 383.469 505.06 383.469C502.547 383.469 500.458 382.505 498.791 380.578V390.695H494.943ZM498.791 377.922C500.77 379.693 502.658 380.578 504.455 380.578C508.153 380.578 510.002 377.759 510.002 372.121C510.002 367.147 508.361 364.66 505.08 364.66C502.932 364.66 500.835 365.826 498.791 368.156V377.922ZM528.439 383.469C525.405 383.469 522.984 382.466 521.174 380.461C519.364 378.443 518.459 375.747 518.459 372.375C518.459 368.964 519.364 366.268 521.174 364.289C522.997 362.297 525.464 361.301 528.576 361.301C531.688 361.301 534.149 362.297 535.959 364.289C537.782 366.268 538.693 368.951 538.693 372.336C538.693 375.799 537.782 378.521 535.959 380.5C534.136 382.479 531.629 383.469 528.439 383.469ZM528.498 380.578C532.573 380.578 534.611 377.831 534.611 372.336C534.611 366.906 532.599 364.191 528.576 364.191C524.566 364.191 522.56 366.919 522.56 372.375C522.56 377.844 524.54 380.578 528.498 380.578ZM544.709 382.98V361.77H548.557V365.754C550.588 362.785 553.075 361.301 556.017 361.301C557.853 361.301 559.318 361.887 560.412 363.059C561.506 364.217 562.053 365.78 562.053 367.746V382.98H558.205V368.996C558.205 367.421 557.971 366.301 557.502 365.637C557.046 364.96 556.284 364.621 555.217 364.621C552.86 364.621 550.64 366.164 548.557 369.25V382.98H544.709ZM575.178 383.469C573.42 383.469 571.284 383.059 568.771 382.238V378.703C571.284 379.953 573.472 380.578 575.334 380.578C576.441 380.578 577.359 380.279 578.088 379.68C578.817 379.081 579.182 378.332 579.182 377.434C579.182 376.118 578.159 375.031 576.115 374.172L573.869 373.215C570.549 371.835 568.889 369.849 568.889 367.258C568.889 365.409 569.54 363.957 570.842 362.902C572.157 361.835 573.954 361.301 576.232 361.301C577.417 361.301 578.882 361.464 580.627 361.789L581.428 361.945V365.148C579.279 364.51 577.573 364.191 576.31 364.191C573.836 364.191 572.599 365.09 572.599 366.887C572.599 368.046 573.537 369.022 575.412 369.816L577.267 370.598C579.364 371.483 580.848 372.421 581.721 373.41C582.593 374.387 583.029 375.611 583.029 377.082C583.029 378.944 582.293 380.474 580.822 381.672C579.351 382.87 577.469 383.469 575.178 383.469ZM589.943 382.98V361.77H593.791V382.98H589.943ZM589.943 357.922V354.074H593.791V357.922H589.943ZM601.506 383.215V352.141H605.353V365.754C606.929 362.785 609.292 361.301 612.443 361.301C614.995 361.301 617.001 362.232 618.459 364.094C619.93 365.956 620.666 368.501 620.666 371.73C620.666 375.246 619.833 378.085 618.166 380.246C616.512 382.395 614.331 383.469 611.623 383.469C609.11 383.469 607.02 382.505 605.353 380.578L604.885 383.215H601.506ZM605.353 377.922C607.333 379.693 609.221 380.578 611.017 380.578C614.715 380.578 616.564 377.759 616.564 372.121C616.564 367.147 614.924 364.66 611.642 364.66C609.494 364.66 607.398 365.826 605.353 368.156V377.922ZM626.701 382.98V361.77H630.549V382.98H626.701ZM626.701 357.922V354.074H630.549V357.922H626.701ZM638.264 382.98V352.141H642.111V382.98H638.264ZM649.826 382.98V361.77H653.674V382.98H649.826ZM649.826 357.922V354.074H653.674V357.922H649.826ZM667.756 383.469C665.803 383.469 664.279 382.909 663.185 381.789C662.092 380.669 661.545 379.113 661.545 377.121V364.66H658.889V361.77H661.545V357.922L665.392 357.551V361.77H670.939V364.66H665.392V376.418C665.392 379.191 666.59 380.578 668.986 380.578C669.494 380.578 670.113 380.493 670.842 380.324V382.98C669.657 383.306 668.628 383.469 667.756 383.469ZM677.58 390.695L681.017 382.98L672.814 361.77H676.974L683.049 377.746L689.533 361.77H693.166L681.584 390.695H677.58ZM717.619 386.105V388.762C714.807 386.848 712.573 384.25 710.92 380.969C709.279 377.674 708.459 374.165 708.459 370.441C708.459 366.73 709.279 363.234 710.92 359.953C712.573 356.659 714.807 354.055 717.619 352.141V354.797C715.705 356.88 714.338 359.12 713.517 361.516C712.71 363.911 712.307 366.887 712.307 370.441C712.307 374.009 712.71 376.991 713.517 379.387C714.338 381.783 715.705 384.022 717.619 386.105ZM722.795 382.98V354.074H730.295C733.185 354.074 735.399 354.621 736.935 355.715C738.485 356.809 739.26 358.384 739.26 360.441C739.26 363.944 737.28 366.438 733.322 367.922C738.049 369.367 740.412 371.978 740.412 375.754C740.412 378.098 739.631 379.888 738.068 381.125C736.506 382.362 734.253 382.98 731.31 382.98H722.795ZM726.857 379.914H727.697C730.705 379.914 732.652 379.725 733.537 379.348C735.23 378.632 736.076 377.303 736.076 375.363C736.076 373.645 735.308 372.219 733.771 371.086C732.235 369.94 730.314 369.367 728.01 369.367H726.857V379.914ZM726.857 366.77H728.166C730.353 366.77 732.046 366.301 733.244 365.363C734.455 364.426 735.06 363.104 735.06 361.398C735.06 358.56 732.86 357.141 728.459 357.141H726.857V366.77ZM751.467 383.703C749.527 383.703 747.046 383.28 744.025 382.434V378.371C747.28 379.882 749.956 380.637 752.053 380.637C753.667 380.637 754.963 380.214 755.939 379.367C756.929 378.521 757.424 377.408 757.424 376.027C757.424 374.895 757.098 373.931 756.447 373.137C755.809 372.342 754.624 371.457 752.892 370.48L750.9 369.328C748.439 367.922 746.701 366.6 745.685 365.363C744.683 364.113 744.182 362.661 744.182 361.008C744.182 358.781 744.989 356.952 746.603 355.52C748.218 354.074 750.275 353.352 752.775 353.352C755.002 353.352 757.352 353.723 759.826 354.465V358.215C756.779 357.017 754.507 356.418 753.01 356.418C751.59 356.418 750.418 356.796 749.494 357.551C748.57 358.306 748.107 359.257 748.107 360.402C748.107 361.366 748.446 362.219 749.123 362.961C749.8 363.703 751.037 364.589 752.834 365.617L754.904 366.789C757.404 368.208 759.149 369.549 760.139 370.812C761.128 372.076 761.623 373.592 761.623 375.363C761.623 377.876 760.692 379.895 758.83 381.418C756.981 382.941 754.527 383.703 751.467 383.703ZM767.365 382.98V354.074H776.115C778.889 354.074 781.011 354.686 782.482 355.91C783.967 357.134 784.709 358.911 784.709 361.242C784.709 365.096 782.762 367.831 778.869 369.445L788.517 382.98H783.478L775.256 370.754H771.428V382.98H767.365ZM771.428 367.688H772.756C777.912 367.688 780.49 365.663 780.49 361.613C780.49 358.632 778.329 357.141 774.006 357.141H771.428V367.688ZM790.392 386.105V388.762C793.205 386.848 795.432 384.25 797.072 380.969C798.726 377.674 799.553 374.165 799.553 370.441C799.553 366.73 798.726 363.234 797.072 359.953C795.432 356.659 793.205 354.055 790.392 352.141V354.797C792.307 356.88 793.667 359.12 794.474 361.516C795.295 363.911 795.705 366.887 795.705 370.441C795.705 374.009 795.295 376.991 794.474 379.387C793.667 381.783 792.307 384.022 790.392 386.105Z" fill="#B2BAA3"/>
<g clip-path="url(#clip0_3060_379)">
<path d="M297.554 241.968C298.758 245.327 297.037 249.031 293.683 250.236C290.328 251.442 286.629 249.72 285.424 246.36C284.22 243.001 285.94 239.297 289.295 238.092C292.564 236.886 296.263 238.608 297.554 241.968Z" fill="#D40419"/>
<path d="M290.414 227.066C291.36 229.564 289.984 232.32 287.489 233.268C284.994 234.215 282.241 232.923 281.295 230.339C280.349 227.841 281.639 225.085 284.22 224.138C286.715 223.276 289.467 224.568 290.414 227.066Z" fill="#D40419"/>
<path d="M301.855 258.68C302.801 261.178 301.511 263.934 298.93 264.882C296.435 265.829 293.682 264.451 292.736 261.953C291.876 259.455 293.08 256.699 295.661 255.752C298.156 254.804 300.908 256.096 301.855 258.68Z" fill="#D40419"/>
<path d="M305.382 272.978C305.984 274.7 305.124 276.595 303.403 277.198C301.683 277.801 299.79 276.94 299.188 275.217C298.586 273.494 299.446 271.599 301.167 270.997C302.887 270.394 304.78 271.255 305.382 272.978Z" fill="#D40419"/>
<path d="M329.726 209.064C332.823 210.873 333.855 214.835 332.135 217.936C330.328 221.037 326.457 222.071 323.361 220.262C320.264 218.453 319.231 214.577 321.038 211.476C322.758 208.375 326.629 207.342 329.726 209.064Z" fill="#D40419"/>
<path d="M314.758 202.347C317.081 203.639 317.855 206.654 316.565 208.98C315.188 211.305 312.264 212.081 309.941 210.789C307.618 209.497 306.844 206.482 308.134 204.156C309.511 201.745 312.436 200.969 314.758 202.347Z" fill="#D40419"/>
<path d="M343.834 219.056C346.157 220.434 346.931 223.363 345.641 225.688C344.35 228.014 341.339 228.789 339.017 227.497C336.694 226.119 335.92 223.19 337.21 220.865C338.501 218.539 341.426 217.764 343.834 219.056Z" fill="#D40419"/>
<path d="M355.705 227.755C357.254 228.702 357.856 230.683 356.91 232.234C356.049 233.784 353.985 234.301 352.436 233.44C350.888 232.492 350.372 230.511 351.232 228.961C352.178 227.41 354.157 226.893 355.705 227.755Z" fill="#D40419"/>
<path d="M335.576 186.497C339.103 187.1 341.425 190.46 340.823 193.991C340.221 197.523 336.866 199.848 333.339 199.245C329.812 198.642 327.49 195.283 328.178 191.752C328.78 188.22 332.135 185.894 335.576 186.497Z" fill="#9D2239"/>
<path d="M319.145 185.206C321.726 185.637 323.533 188.221 323.016 190.805C322.586 193.389 320.006 195.198 317.425 194.767C314.844 194.337 313.038 191.753 313.554 189.169C314.07 186.499 316.565 184.776 319.145 185.206Z" fill="#9D2239"/>
<path d="M352.178 191.062C354.759 191.579 356.566 194.077 356.135 196.661C355.705 199.331 353.211 201.054 350.544 200.537C347.877 200.106 346.157 197.522 346.587 194.938C347.103 192.354 349.598 190.631 352.178 191.062Z" fill="#9D2239"/>
<path d="M366.372 195.111C368.179 195.456 369.297 197.092 369.039 198.901C368.695 200.71 366.974 201.916 365.254 201.571C363.447 201.227 362.243 199.59 362.587 197.781C362.931 195.972 364.566 194.853 366.372 195.111Z" fill="#9D2239"/>
<path d="M323.361 142.137C326.457 140.328 330.414 141.448 332.135 144.462C333.941 147.563 332.823 151.439 329.812 153.248C326.715 155.057 322.758 153.937 321.038 150.836C319.231 147.822 320.264 143.859 323.361 142.137Z" fill="#D40419"/>
<path d="M309.941 151.701C312.264 150.409 315.188 151.184 316.565 153.509C317.941 155.835 317.081 158.764 314.758 160.142C312.436 161.434 309.511 160.659 308.134 158.333C306.758 156.007 307.618 153.079 309.941 151.701Z" fill="#D40419"/>
<path d="M339.017 134.904C341.339 133.612 344.264 134.387 345.641 136.712C346.931 139.038 346.157 141.967 343.834 143.345C341.512 144.637 338.587 143.862 337.21 141.536C335.92 139.21 336.694 136.282 339.017 134.904Z" fill="#D40419"/>
<path d="M352.436 128.872C353.985 128.011 356.049 128.527 356.91 130.078C357.77 131.628 357.254 133.696 355.705 134.557C354.157 135.504 352.178 134.901 351.232 133.351C350.372 131.801 350.888 129.819 352.436 128.872Z" fill="#D40419"/>
<path d="M306.672 125.688C308.995 122.931 313.038 122.587 315.791 124.912C318.457 127.238 318.887 131.286 316.565 134.043C314.242 136.713 310.199 137.057 307.532 134.818C304.78 132.492 304.435 128.444 306.672 125.688Z" fill="#9D2239"/>
<path d="M297.381 139.382C299.102 137.314 302.113 137.056 304.177 138.779C306.242 140.501 306.5 143.516 304.779 145.583C303.059 147.564 300.048 147.909 297.984 146.186C295.919 144.464 295.661 141.363 297.381 139.382Z" fill="#9D2239"/>
<path d="M318.973 113.627C320.694 111.646 323.705 111.301 325.769 113.024C327.834 114.747 328.092 117.762 326.371 119.829C324.651 121.896 321.64 122.154 319.576 120.432C317.511 118.709 317.253 115.694 318.973 113.627Z" fill="#9D2239"/>
<path d="M329.554 103.377C330.759 101.998 332.823 101.826 334.199 102.946C335.576 104.066 335.748 106.219 334.63 107.597C333.425 108.975 331.361 109.148 329.984 108.028C328.608 106.822 328.35 104.755 329.554 103.377Z" fill="#9D2239"/>
<path d="M285.424 116.038C286.629 112.679 290.328 110.956 293.683 112.162C297.037 113.368 298.758 117.072 297.554 120.431C296.349 123.79 292.65 125.513 289.295 124.221C285.94 123.015 284.22 119.397 285.424 116.038Z" fill="#9D2239"/>
<path d="M281.381 131.976C282.327 129.478 285.08 128.186 287.575 129.048C290.07 129.995 291.36 132.752 290.5 135.249C289.553 137.747 286.801 139.039 284.306 138.178C281.725 137.317 280.435 134.474 281.381 131.976Z" fill="#9D2239"/>
<path d="M292.822 100.449C293.769 97.9511 296.521 96.6591 299.016 97.5204C301.511 98.4679 302.801 101.224 301.941 103.722C300.994 106.22 298.242 107.512 295.747 106.651C293.166 105.703 291.962 102.947 292.822 100.449Z" fill="#9D2239"/>
<path d="M299.274 87.1846C299.876 85.462 301.769 84.6006 303.489 85.2035C305.21 85.8065 306.07 87.7015 305.468 89.4241C304.865 91.1468 302.973 92.0082 301.253 91.4052C299.532 90.7162 298.672 88.9073 299.274 87.1846Z" fill="#9D2239"/>
<path d="M262.198 114.144C262.198 110.612 265.123 107.684 268.65 107.684C272.177 107.684 275.101 110.526 275.101 114.144C275.101 117.675 272.177 120.604 268.65 120.604C265.037 120.604 262.198 117.761 262.198 114.144Z" fill="#9D2239"/>
<path d="M263.746 130.597C263.746 127.927 265.897 125.773 268.564 125.773C271.23 125.773 273.381 127.927 273.381 130.597C273.381 133.267 271.23 135.421 268.564 135.421C265.897 135.507 263.746 133.267 263.746 130.597Z" fill="#9D2239"/>
<path d="M263.746 97.0032C263.746 94.333 265.897 92.1797 268.564 92.1797C271.23 92.1797 273.381 94.333 273.381 97.0032C273.381 99.6734 271.23 101.827 268.564 101.827C265.983 101.827 263.832 99.6734 263.746 97.0032Z" fill="#9D2239"/>
<path d="M265.295 82.359C265.295 80.5502 266.757 79.0859 268.564 79.0859C270.37 79.0859 271.833 80.5502 271.833 82.359C271.833 84.1679 270.37 85.6321 268.564 85.6321C266.757 85.6321 265.295 84.1679 265.295 82.359Z" fill="#9D2239"/>
<path d="M275.015 248.171C275.015 251.703 272.177 254.631 268.564 254.631C265.037 254.631 262.112 251.703 262.112 248.171C262.112 244.64 264.951 241.711 268.564 241.711C272.091 241.797 275.015 244.64 275.015 248.171Z" fill="#EE7624"/>
<path d="M273.381 231.718C273.381 234.388 271.23 236.542 268.564 236.542C265.897 236.542 263.746 234.388 263.746 231.718C263.746 229.048 265.897 226.895 268.564 226.895C271.23 226.895 273.381 229.048 273.381 231.718Z" fill="#EE7624"/>
<path d="M273.381 265.308C273.381 267.978 271.23 270.131 268.564 270.131C265.897 270.131 263.746 267.978 263.746 265.308C263.746 262.638 265.897 260.484 268.564 260.484C271.23 260.484 273.381 262.638 273.381 265.308Z" fill="#EE7624"/>
<path d="M271.833 280.039C271.833 281.848 270.37 283.312 268.564 283.312C266.757 283.312 265.295 281.848 265.295 280.039C265.295 278.23 266.757 276.766 268.564 276.766C270.37 276.766 271.833 278.23 271.833 280.039Z" fill="#EE7624"/>
<path d="M316.565 228.359C318.887 231.115 318.457 235.164 315.79 237.489C313.038 239.729 308.995 239.384 306.758 236.714C304.521 233.958 304.865 229.909 307.532 227.67C310.199 225.344 314.242 225.689 316.565 228.359Z" fill="#D40419"/>
<path d="M304.693 216.815C306.414 218.882 306.156 221.897 304.091 223.62C302.027 225.343 299.016 225.084 297.295 223.017C295.575 220.95 295.833 217.935 297.898 216.212C299.962 214.49 302.973 214.748 304.693 216.815Z" fill="#D40419"/>
<path d="M326.371 242.573C328.092 244.64 327.834 247.655 325.769 249.378C323.705 251.1 320.694 250.842 318.973 248.775C317.253 246.707 317.511 243.693 319.575 241.97C321.554 240.247 324.565 240.506 326.371 242.573Z" fill="#D40419"/>
<path d="M334.543 254.802C335.662 256.181 335.576 258.248 334.113 259.454C332.737 260.573 330.672 260.401 329.468 259.023C328.264 257.645 328.436 255.578 329.898 254.372C331.361 253.252 333.339 253.424 334.543 254.802Z" fill="#D40419"/>
<path d="M333.339 163.24C336.866 162.637 340.221 164.962 340.823 168.494C341.425 172.025 339.103 175.298 335.576 175.988C332.049 176.59 328.78 174.265 328.178 170.733C327.576 167.202 329.898 163.843 333.339 163.24Z" fill="#D40419"/>
<path d="M317.511 167.632C320.092 167.202 322.672 168.924 323.102 171.508C323.533 174.179 321.812 176.676 319.145 177.107C316.565 177.538 313.984 175.815 313.554 173.145C313.124 170.647 314.844 168.149 317.511 167.632Z" fill="#D40419"/>
<path d="M350.544 161.863C353.125 161.432 355.619 163.155 356.135 165.825C356.565 168.495 354.845 170.993 352.178 171.424C349.598 171.854 347.017 170.132 346.587 167.548C346.157 164.791 347.877 162.293 350.544 161.863Z" fill="#D40419"/>
<path d="M365.254 160.828C367.06 160.484 368.781 161.69 369.039 163.498C369.383 165.307 368.179 167.03 366.372 167.288C364.566 167.633 362.845 166.427 362.587 164.618C362.329 162.809 363.447 161.087 365.254 160.828Z" fill="#D40419"/>
<path d="M239.66 120.431C238.456 117.072 240.176 113.368 243.531 112.162C246.886 110.956 250.585 112.679 251.789 116.038C252.994 119.397 251.273 123.101 247.918 124.307C244.563 125.427 240.864 123.79 239.66 120.431Z" fill="#D40419"/>
<path d="M246.8 135.334C245.94 132.836 247.23 130.08 249.725 129.133C252.219 128.185 254.972 129.563 255.918 132.061C256.864 134.559 255.488 137.315 252.993 138.263C250.499 139.124 247.66 137.832 246.8 135.334Z" fill="#D40419"/>
<path d="M235.359 103.724C234.412 101.226 235.703 98.4696 238.197 97.5222C240.692 96.5747 243.531 97.8667 244.391 100.365C245.251 102.862 243.961 105.619 241.466 106.566C238.972 107.514 236.219 106.222 235.359 103.724Z" fill="#D40419"/>
<path d="M231.746 89.4241C231.143 87.7015 232.004 85.8065 233.724 85.2035C235.445 84.6006 237.337 85.462 237.939 87.1846C238.541 88.9073 237.681 90.8023 235.961 91.4052C234.24 92.0082 232.348 91.1468 231.746 89.4241Z" fill="#D40419"/>
<path d="M220.649 134.042C218.326 131.286 218.756 127.238 221.423 124.998C224.176 122.759 228.219 123.017 230.455 125.773C232.778 128.53 232.348 132.578 229.681 134.817C227.014 137.057 222.971 136.712 220.649 134.042Z" fill="#D40419"/>
<path d="M232.434 145.497C230.713 143.516 230.971 140.415 233.036 138.693C235.101 136.97 238.111 137.228 239.832 139.296C241.552 141.277 241.294 144.378 239.23 146.1C237.165 147.909 234.154 147.565 232.434 145.497Z" fill="#D40419"/>
<path d="M210.842 119.829C209.122 117.762 209.38 114.747 211.444 113.025C213.509 111.302 216.52 111.561 218.24 113.628C219.961 115.695 219.702 118.71 217.638 120.432C215.659 122.069 212.563 121.81 210.842 119.829Z" fill="#D40419"/>
<path d="M202.584 107.511C201.379 106.133 201.638 104.066 203.014 102.86C204.39 101.74 206.455 101.913 207.659 103.291C208.863 104.669 208.605 106.736 207.229 107.942C205.853 109.148 203.788 108.976 202.584 107.511Z" fill="#D40419"/>
<path d="M207.401 153.25C204.304 151.441 203.272 147.479 205.078 144.464C206.885 141.363 210.756 140.33 213.853 142.053C216.864 143.861 217.982 147.824 216.175 150.838C214.455 153.939 210.498 155.059 207.401 153.25Z" fill="#EE7624"/>
<path d="M222.455 160.056C220.133 158.764 219.358 155.749 220.735 153.509C222.025 151.184 225.036 150.409 227.358 151.701C229.681 152.993 230.455 156.007 229.165 158.333C227.703 160.659 224.778 161.434 222.455 160.056Z" fill="#EE7624"/>
<path d="M193.379 143.259C191.057 141.881 190.282 138.952 191.573 136.627C192.949 134.301 195.874 133.526 198.197 134.818C200.519 136.196 201.293 139.124 200.003 141.45C198.627 143.862 195.702 144.637 193.379 143.259Z" fill="#EE7624"/>
<path d="M181.422 134.557C179.874 133.696 179.272 131.628 180.218 130.078C181.078 128.527 183.143 128.011 184.691 128.872C186.239 129.819 186.756 131.801 185.895 133.351C185.035 134.988 183.057 135.504 181.422 134.557Z" fill="#EE7624"/>
<path d="M201.551 175.902C198.025 175.299 195.702 171.939 196.304 168.408C196.906 164.876 200.261 162.551 203.788 163.154C207.315 163.757 209.638 167.116 208.949 170.647C208.347 174.179 205.078 176.504 201.551 175.902Z" fill="#D40419"/>
<path d="M217.982 177.109C215.401 176.678 213.595 174.18 214.111 171.51C214.541 168.926 217.036 167.117 219.702 167.548C222.283 167.979 224.09 170.563 223.66 173.147C223.143 175.903 220.649 177.626 217.982 177.109Z" fill="#D40419"/>
<path d="M184.949 171.338C182.368 170.821 180.562 168.409 180.992 165.739C181.508 163.069 184.003 161.346 186.584 161.777C189.25 162.294 190.971 164.792 190.455 167.376C190.11 170.046 187.616 171.768 184.949 171.338Z" fill="#D40419"/>
<path d="M170.755 167.202C168.949 166.858 167.744 165.135 168.089 163.413C168.347 161.604 170.067 160.398 171.874 160.742C173.68 161.087 174.798 162.723 174.54 164.532C174.282 166.341 172.562 167.547 170.755 167.202Z" fill="#D40419"/>
<path d="M203.788 199.155C200.261 199.758 196.906 197.433 196.304 193.901C195.702 190.37 198.025 187.011 201.551 186.408C205.078 185.805 208.347 188.13 208.949 191.662C209.638 195.193 207.315 198.553 203.788 199.155Z" fill="#EE7624"/>
<path d="M219.702 194.678C217.122 195.108 214.627 193.386 214.111 190.715C213.681 188.131 215.401 185.547 218.068 185.117C220.649 184.686 223.229 186.409 223.66 189.079C224.09 191.749 222.283 194.247 219.702 194.678Z" fill="#EE7624"/>
<path d="M186.669 200.537C184.089 200.968 181.594 199.245 181.078 196.575C180.648 193.905 182.368 191.407 185.035 190.976C187.616 190.545 190.11 192.268 190.627 194.938C191.057 197.608 189.25 200.106 186.669 200.537Z" fill="#EE7624"/>
<path d="M171.959 201.57C170.153 201.914 168.433 200.708 168.174 198.9C167.83 197.091 169.035 195.368 170.841 195.11C172.648 194.765 174.368 195.971 174.712 197.78C174.884 199.589 173.68 201.225 171.959 201.57Z" fill="#EE7624"/>
<path d="M213.853 220.261C210.756 222.07 206.799 220.95 205.079 217.935C203.358 214.834 204.39 210.872 207.401 209.063C210.498 207.255 214.369 208.374 216.176 211.475C217.982 214.576 216.95 218.452 213.853 220.261Z" fill="#D40419"/>
<path d="M227.272 210.614C224.95 211.993 222.025 211.131 220.649 208.806C219.358 206.48 220.133 203.551 222.455 202.173C224.778 200.881 227.703 201.656 229.079 203.982C230.369 206.308 229.595 209.322 227.272 210.614Z" fill="#D40419"/>
<path d="M198.197 227.411C195.874 228.703 192.949 227.928 191.573 225.688C190.282 223.363 191.057 220.434 193.379 219.056C195.702 217.764 198.627 218.539 200.003 220.865C201.293 223.19 200.519 226.119 198.197 227.411Z" fill="#D40419"/>
<path d="M184.691 233.44C183.143 234.301 181.078 233.784 180.218 232.234C179.272 230.683 179.874 228.616 181.422 227.755C183.057 226.893 184.949 227.41 185.981 228.961C186.842 230.511 186.325 232.492 184.691 233.44Z" fill="#D40419"/>
<path d="M230.541 236.624C228.219 239.295 224.176 239.725 221.509 237.4C218.756 235.16 218.412 231.026 220.735 228.355C223.057 225.599 227.1 225.255 229.767 227.58C232.434 229.906 232.778 233.954 230.541 236.624Z" fill="#9D2239"/>
<path d="M239.832 223.016C238.111 225.083 235.101 225.341 233.036 223.619C231.058 221.896 230.713 218.881 232.434 216.814C234.154 214.833 237.165 214.574 239.23 216.211C241.294 217.934 241.552 220.948 239.832 223.016Z" fill="#9D2239"/>
<path d="M218.24 248.771C216.52 250.838 213.509 251.096 211.444 249.374C209.38 247.651 209.122 244.636 210.842 242.569C212.563 240.502 215.659 240.244 217.638 241.966C219.702 243.689 219.961 246.704 218.24 248.771Z" fill="#9D2239"/>
<path d="M207.573 259.019C206.455 260.397 204.304 260.569 202.928 259.45C201.552 258.33 201.38 256.177 202.498 254.798C203.702 253.42 205.767 253.248 207.143 254.368C208.605 255.574 208.778 257.641 207.573 259.019Z" fill="#9D2239"/>
<path d="M251.789 246.359C250.585 249.718 246.8 251.441 243.531 250.235C240.176 249.029 238.456 245.325 239.66 241.966C240.864 238.607 244.563 236.884 247.918 238.176C251.187 239.296 252.907 243 251.789 246.359Z" fill="#D40419"/>
<path d="M255.832 230.339C254.972 232.837 252.219 234.129 249.639 233.268C247.144 232.32 245.854 229.564 246.8 227.066C247.66 224.568 250.499 223.276 252.994 224.138C255.488 225.085 256.779 227.841 255.832 230.339Z" fill="#D40419"/>
<path d="M244.391 261.949C243.445 264.447 240.692 265.739 238.197 264.877C235.703 263.93 234.326 261.173 235.273 258.676C236.219 256.178 238.972 254.886 241.466 255.747C243.961 256.608 245.251 259.451 244.391 261.949Z" fill="#D40419"/>
<path d="M237.853 275.213C237.251 276.936 235.359 277.797 233.638 277.194C231.918 276.591 231.058 274.696 231.66 272.974C232.348 271.251 234.154 270.39 235.875 270.993C237.681 271.596 238.456 273.491 237.853 275.213Z" fill="#D40419"/>
<path d="M461.944 231.371H418.33V130.68H461.428C478.891 130.68 489.644 141.016 489.644 157.209C489.644 165.736 485.17 174.005 476.482 178.312C487.321 182.102 492.396 191.318 492.396 202.516C492.568 218.967 480.525 231.371 461.944 231.371ZM461.858 183.48H428.309V221.638H462.288C473.385 221.638 482.418 215.005 482.418 202.516C482.504 189.51 474.503 183.48 461.858 183.48ZM428.309 173.919H461.858C470.374 173.919 479.665 169.096 479.665 157.123C479.665 145.753 472.697 140.327 461.428 140.327H428.309V173.919Z" fill="#898989"/>
<path d="M542.29 233.611C521.042 233.611 504.612 221.122 504.612 200.363H514.848C514.848 215.523 527.064 223.964 542.29 223.964C560.355 223.964 569.989 216.212 569.989 203.809C569.989 194.075 564.914 188.304 542.29 184.17C521.472 180.38 507.536 173.834 507.536 156.521C507.536 139.638 521.3 128.613 542.29 128.613C564.742 128.613 577.301 141.533 577.301 159.449H567.237C567.237 146.702 558.204 138.174 542.376 138.174C526.289 138.174 517.687 145.668 517.687 156.262C517.687 165.737 523.623 170.561 544.44 174.523C566.634 178.83 580.054 185.117 580.054 203.723C580.054 222.758 564.828 233.611 542.29 233.611Z" fill="#898989"/>
<path d="M678.293 137.054C678.895 137.054 679.411 136.709 679.411 135.934C679.411 135.073 678.981 134.814 678.293 134.814H676.142V137.054H678.293ZM680.873 140.93H679.325L677.949 138.346H676.142V140.93H674.766V133.522H678.293C679.841 133.522 680.873 134.47 680.873 135.934C680.873 136.968 680.271 137.829 679.325 138.173L680.873 140.93ZM677.518 131.972C674.594 131.972 672.099 134.383 672.099 137.398C672.099 140.413 674.508 142.911 677.518 142.911C680.443 142.911 682.852 140.413 682.852 137.398C682.852 134.383 680.443 131.972 677.518 131.972ZM677.518 144.117C673.819 144.117 670.809 141.102 670.809 137.398C670.809 133.694 673.819 130.68 677.518 130.68C681.217 130.68 684.228 133.608 684.228 137.398C684.228 141.102 681.217 144.117 677.518 144.117Z" fill="#898989"/>
<path d="M606.635 175.211H636.915C648.271 175.211 657.991 169.957 657.991 158.07C657.991 146.184 650.851 140.499 636.915 140.499H606.635V175.211ZM659.023 231.371C657.303 226.72 657.303 216.986 657.045 213.283C656.185 199.587 655.152 184.341 637.432 185.031H606.635V231.371H597.345V130.68H637.604C653.776 130.68 667.282 138.432 667.282 156.175C667.282 168.493 660.83 178.657 648.271 181.068V181.327C661.002 182.963 664.701 191.749 665.389 203.377C665.733 209.579 665.819 225.169 669.088 231.285L659.023 231.371Z" fill="#898989"/>
</g>
<defs>
<clipPath id="clip0_3060_379">
<rect width="517" height="205" fill="white" transform="translate(167.4 79)"/>
</clipPath>
</defs>
</svg>
