<svg width="851" height="451" viewBox="0 0 851 451" fill="none" xmlns="http://www.w3.org/2000/svg">
<rect x="0.850098" y="0.722656" width="850" height="450" rx="40" fill="#F7F7F7"/>
<path d="M425.849 90.0547C375.002 90.0547 333.974 130.82 333.974 181.332C333.974 231.698 375.002 272.602 425.849 272.602C476.55 272.602 517.719 231.698 517.719 181.332C517.719 130.82 476.55 90.0547 425.849 90.0547V90.0547Z" fill="#3F9C35"/>
<path d="M450.173 122.235L427.607 144.506V240.725H459.111V175.367L479.772 195.891L502.038 173.765L450.173 122.235V122.235ZM349.653 173.765L371.78 195.891L392.587 175.222V240.725H424.092V144.652L401.525 122.09L349.653 173.765V173.765Z" fill="white"/>
<path d="M421.307 60.8087L421.159 63.563L426.437 63.7167L426.143 77.2551H429.806L430.1 63.8518H435.229L435.373 61.1022L421.308 60.8086L421.307 60.8087ZM442.699 61.9738L439.767 77.973L450.611 80.0096L451.054 77.5489L443.723 76.23L444.607 71.728L451.347 72.8931L451.784 70.4091L445.045 69.244L445.776 65.017L452.957 66.336L453.399 63.852L442.699 61.9738ZM399.176 63.6795C398.111 63.7096 396.983 63.9275 396.104 64.1456C391.12 65.4644 388.193 69.6899 389.658 74.7713C390.976 80.0079 395.37 81.9116 400.498 80.457C401.816 80.1661 403.28 79.5821 404.454 78.7093L403.579 76.23C402.552 76.967 401.525 77.547 400.353 77.8378C396.836 78.7106 394.199 77.1005 393.321 73.7646C392.442 70.4094 393.906 67.5023 397.277 66.6296C398.449 66.3387 399.766 66.1809 400.791 66.336L400.209 63.7168C399.879 63.6781 399.531 63.6696 399.176 63.6796V63.6795ZM460.725 65.5996L463.067 74.9297L454.423 80.7459L458.231 82.1999L464.388 77.3904L465.999 85.1127L470.099 86.5667L467.465 76.5189L475.377 70.9917L471.714 69.6914L466.143 74.0536L464.682 67.0723L460.725 65.5996ZM379.693 69.6914L376.323 71.1455L382.913 86.2731L386.283 84.8191L379.693 69.6914ZM480.064 73.1821L478.598 75.8012L483.141 78.2666L476.401 90.0574L479.627 91.8003L486.366 80.1633L490.76 82.6473L492.226 80.1633L480.064 73.1821ZM367.824 75.2187L365.041 76.8079L372.218 88.3097L359.911 80.0096L355.22 82.9409L364.012 96.7683L366.795 95.1558L359.618 83.654L371.924 91.9588L376.467 89.0461L367.824 75.2187ZM498.091 84.395L487.977 97.486L490.909 99.6764L501.023 86.5667L498.091 84.395ZM344.231 91.8003L340.717 95.1558L347.456 111.318L350.091 108.988L348.336 104.915L353.46 100.105L357.417 102.137L360.205 99.5226L344.231 91.8003V91.8003ZM508.503 92.8303L496.769 104.467L504.379 112.045L506.59 110.004L501.451 105.05L511.137 95.4494L508.503 92.8303V92.8303ZM344.087 95.1558L351.264 98.8049L347.163 102.585L344.087 95.1558V95.1558ZM331.338 105.921C330.018 106.814 328.698 108.266 327.82 109.566C324.742 113.644 325.036 118.741 329.286 121.799C333.681 125.001 338.368 123.835 341.592 119.469C342.765 117.867 343.645 116.119 344.231 114.226L337.636 109.566L334.564 113.937L336.467 115.391L337.785 113.648L340.568 115.685C340.421 116.56 339.981 117.283 339.395 118.01C337.343 120.922 334.268 120.63 331.631 118.737C328.554 116.701 328.113 113.353 330.31 110.442C331.19 109.276 332.217 108.27 333.535 107.688L331.338 105.921V105.921ZM520.804 105.921L507.465 115.685L514.065 124.418L516.117 122.96L511.723 116.994L515.377 114.226L519.478 119.758L521.526 118.304L517.425 112.772L520.939 110.297L525.198 115.974L527.25 114.52L520.804 105.921V105.921ZM320.489 125.388C318.579 125.463 317.123 127.074 316.244 128.93L313.312 135.044L328.113 142.03L329.723 138.828L323.57 135.916L324.157 134.751C324.889 133.15 325.474 133.006 327.233 133.152L332.218 133.735L333.973 130.095L327.82 129.657C326.353 129.511 325.473 129.803 324.594 130.966C325.18 128.928 324.596 126.745 322.546 125.873C321.813 125.509 321.125 125.363 320.489 125.388ZM320.186 129.009C320.541 128.977 320.934 129.037 321.373 129.219C323.131 130.093 322.837 131.839 322.104 133.441L321.373 134.9L316.975 132.858L317.854 131.26C318.404 130.06 319.122 129.105 320.186 129.009V129.009ZM534.912 135.328C534.522 135.365 534.114 135.463 533.692 135.627C531.642 136.354 531.055 138.103 530.918 140.287L530.765 142.03C530.765 143.341 530.763 145.232 529.592 145.67C527.834 146.252 526.799 144.943 526.213 143.489C525.627 142.032 525.333 140.43 525.626 138.828L522.857 139.7C522.994 141.447 523.439 143.049 524.025 144.649C525.197 147.706 527.543 150.325 531.058 149.016C533.401 148.143 533.985 146.252 533.985 143.922V142.03C533.985 140.866 534.143 139.264 535.158 138.973C536.623 138.391 537.658 139.992 538.244 141.303C538.674 142.467 538.967 143.778 538.831 145.087L541.465 144.216C541.309 142.907 541.018 141.447 540.432 140.138C539.543 137.716 537.637 135.073 534.912 135.328H534.912ZM314.606 144.705C311.288 144.924 308.734 146.944 307.745 150.764C306.426 155.713 309.063 159.353 313.898 160.662C318.88 161.973 322.84 160.081 324.305 154.986C325.624 150.036 322.983 146.398 318.148 145.087C316.902 144.76 315.712 144.632 314.606 144.705ZM315.057 148.378C315.758 148.416 316.464 148.545 317.124 148.727C319.761 149.454 322.69 151.201 321.811 154.403C320.932 157.46 317.564 157.604 314.927 157.023C312.289 156.295 309.356 154.403 310.235 151.346C310.895 148.945 312.955 148.261 315.057 148.378ZM543.806 150.619L540.879 151.202L541.893 156.296L528.577 158.919L529.298 162.554L542.638 159.935L543.653 164.885L546.58 164.302L543.806 150.619V150.619ZM530.765 169.69L530.918 173.329L535.019 174.639L535.312 181.625L531.211 183.228L531.351 187.012L547.618 180.171L547.478 175.366L530.764 169.69H530.765ZM537.658 175.366L545.272 177.841L537.793 180.753L537.658 175.366H537.658ZM317.417 178.423L317.561 185.558L304.082 185.847V189.487L320.638 189.049L320.349 178.423H317.417H317.417ZM530.918 191.524L530.471 194.725L543.653 196.911L529.457 200.695L528.577 205.933L544.825 208.553L545.407 205.495L532.091 203.314L546.445 199.386L547.167 194.143L530.918 191.524V191.524ZM320.787 194.143L305.842 203.459L306.865 208.119L324.305 211.027L323.57 207.537L319.176 206.805L317.854 199.968L321.517 197.782L320.787 194.143ZM315.513 201.278L316.537 206.66L308.625 205.351L315.513 201.278ZM526.799 212.63L524.746 217.724C522.852 222.817 524.026 227.04 529.298 228.933C534.434 230.971 538.085 229.082 539.999 224.132L542.186 218.451L526.799 212.63V212.63ZM323.514 215.762C322.802 215.66 321.996 215.762 321.08 216.126C319.029 216.853 318.443 218.888 318.883 220.926C317.711 219.178 315.952 218.6 314.047 219.327C311.116 220.493 311.262 223.405 312.288 225.88L314.778 232.134L330.016 226.024L327.82 220.493C326.941 218.199 325.651 216.069 323.514 215.762V215.762ZM527.832 216.853L538.537 220.926L537.793 222.674C536.621 225.878 533.691 226.603 530.625 225.437C527.09 224.128 525.923 221.655 527.25 218.162L527.832 216.853V216.853ZM323.617 219.397C324.818 219.547 325.612 220.833 326.06 221.947L326.647 223.55L321.811 225.437L321.373 223.983C320.64 222.381 320.199 220.346 322.397 219.616C322.635 219.507 322.861 219.44 323.077 219.407C323.265 219.378 323.445 219.376 323.617 219.397V219.397ZM317.012 222.333C318.111 222.463 318.881 223.475 319.321 224.566L319.907 226.313L315.513 228.061L314.778 226.169C314.192 224.712 314.195 223.113 315.807 222.529C316.246 222.347 316.646 222.29 317.012 222.333V222.333ZM520.511 228.499L518.598 231.701L521.391 235.047L517.718 241.017L513.483 240.141L511.43 243.342L528.87 246.549L531.351 242.326L520.511 228.499V228.499ZM330.226 233.663C328.684 233.735 327.067 234.303 325.474 235.341C321.078 237.961 319.762 242.182 322.546 246.693C325.33 250.916 329.872 251.64 334.122 248.874C338.371 246.109 339.836 242.035 336.905 237.522C335.164 234.792 332.796 233.542 330.226 233.663V233.663ZM523.145 236.939L528.125 243.198L520.218 241.599L523.145 236.939ZM331.357 237.177C332.694 237.122 333.973 237.597 334.852 238.98C336.463 241.601 334.266 244.216 332.069 245.673C329.724 247.129 326.354 248.005 324.743 245.239C322.985 242.474 325.181 239.999 327.526 238.542C328.625 237.815 330.02 237.231 331.357 237.177V237.177ZM508.796 246.549L506.431 249.168L511.565 253.679L510.69 254.7C509.519 256.011 508.931 256.009 507.33 255.427L502.624 253.535L499.985 256.447L505.71 258.629C507.038 259.065 508.052 259.213 509.224 258.195C508.052 260.086 508.053 262.266 509.811 263.722C512.154 265.906 514.946 264.597 516.704 262.413L521.232 257.463L508.796 246.549ZM343.207 246.987L341.005 248.874L345.697 254.262L335.588 263.144L337.929 265.908L350.384 254.989L343.207 246.987V246.987ZM513.483 255.282L516.997 258.484L515.824 259.794C514.652 261.105 513.323 261.979 511.858 260.67C510.394 259.504 511.275 257.758 512.31 256.592L513.483 255.282V255.282ZM496.331 259.938L491.933 263.289C487.684 266.636 486.512 270.857 490.029 275.224C493.4 279.446 497.503 279.881 501.744 276.534L506.59 272.75L496.331 259.938ZM354.782 260.376L349.797 266.635L354.196 269.981L355.662 268.089L353.903 266.78L356.1 264.016C356.978 264.307 357.713 264.744 358.445 265.326C361.23 267.364 360.938 270.564 358.888 273.038C356.542 275.95 353.318 276.241 350.533 274.059C349.361 273.184 348.335 272.019 347.75 270.708L345.841 272.894C346.868 274.205 348.186 275.514 349.504 276.534C353.461 279.59 358.591 279.59 361.815 275.513C365.186 271.147 364.159 266.491 360.056 263.289C358.443 261.978 356.686 261.104 354.782 260.376V260.376ZM495.01 264.16L502.038 273.038L500.572 274.204C497.941 276.387 495.156 275.514 493.106 272.894C490.614 269.983 491.054 267.217 493.986 264.887L495.01 264.16V264.16ZM374.563 281.339L373.097 284.396L376.467 285.994L377.933 282.937L374.563 281.339ZM476.401 281.339L472.887 282.937L474.349 285.85L477.723 284.396L476.401 281.339ZM398.175 282.313C394.627 282.572 391.58 284.824 390.682 288.614C389.363 293.999 392.147 297.785 397.421 299.095C399.325 299.677 401.231 299.823 403.281 299.677L405.334 291.82L399.916 290.51L399.325 292.836L401.526 293.418L400.647 296.914C399.768 296.914 398.886 296.911 398.008 296.62C394.637 295.747 393.612 292.837 394.345 289.634C395.223 286.141 398.154 284.393 401.671 285.412C403.135 285.703 404.455 286.285 405.627 287.304L406.362 284.54C405.044 283.812 403.137 283.085 401.526 282.648C400.922 282.484 400.318 282.379 399.72 282.327C399.198 282.281 398.682 282.276 398.175 282.312V282.313ZM456.425 282.322C455.374 282.356 454.388 282.575 453.399 282.793C450.615 283.52 447.39 285.559 448.27 288.907C448.856 290.945 450.467 291.818 452.52 292.109L454.274 292.403C455.593 292.548 457.356 292.692 457.649 293.857C458.088 295.603 456.623 296.477 455.303 296.914C453.692 297.205 452.224 297.349 450.611 297.058L451.198 299.677C452.811 299.823 454.57 299.531 456.183 299.095C459.258 298.367 462.042 296.184 461.163 292.836C460.431 290.361 458.673 289.781 456.476 289.49L454.568 289.196C453.396 289.196 451.933 288.905 451.64 287.887C451.201 286.285 452.956 285.414 454.274 285.123C455.446 284.832 456.766 284.684 457.937 284.829L457.5 282.359C457.133 282.323 456.775 282.311 456.425 282.322V282.322ZM443.434 284.979L429.513 286.433L429.806 289.345L434.935 288.763L436.253 302.152L439.916 301.863L438.598 288.469L443.723 287.887L443.434 284.979V284.979ZM419.106 285.412C413.831 285.121 410.756 288.325 410.463 293.274C410.17 298.369 412.663 301.861 417.938 302.152C423.066 302.589 426.288 299.39 426.581 294.295C426.874 289.2 424.236 285.703 419.106 285.412ZM418.817 287.887C422.188 288.178 422.92 291.381 422.774 294.001C422.627 296.767 421.452 299.823 418.082 299.678C415.004 299.532 414.128 296.183 414.275 293.563C414.421 290.943 415.742 287.741 418.817 287.887Z" fill="black"/>
<path d="M69.4243 399.699C65.9217 400.702 62.8683 401.203 60.2642 401.203C55.6678 401.203 52.1392 399.895 49.6782 397.277C47.2303 394.66 46.0063 390.91 46.0063 386.027C46.0063 381.236 47.2498 377.512 49.7368 374.855C52.2238 372.186 55.7134 370.852 60.2056 370.852C63.1483 370.852 66.2082 371.288 69.3853 372.16V375.949C65.4009 374.595 62.3475 373.918 60.2251 373.918C57.1001 373.918 54.6717 374.979 52.9399 377.102C51.2212 379.224 50.3618 382.212 50.3618 386.066C50.3618 389.882 51.2863 392.85 53.1353 394.973C54.9842 397.082 57.5754 398.137 60.9087 398.137C62.2759 398.137 63.7537 397.896 65.3423 397.414V388H69.4243V399.699ZM76.729 400.48V369.641H80.5767V400.48H76.729ZM96.5923 400.969C93.5584 400.969 91.1366 399.966 89.3267 397.961C87.5168 395.943 86.6118 393.247 86.6118 389.875C86.6118 386.464 87.5168 383.768 89.3267 381.789C91.1496 379.797 93.617 378.801 96.729 378.801C99.841 378.801 102.302 379.797 104.112 381.789C105.935 383.768 106.846 386.451 106.846 389.836C106.846 393.299 105.935 396.021 104.112 398C102.289 399.979 99.7824 400.969 96.5923 400.969ZM96.6509 398.078C100.726 398.078 102.764 395.331 102.764 389.836C102.764 384.406 100.752 381.691 96.729 381.691C92.7186 381.691 90.7134 384.419 90.7134 389.875C90.7134 395.344 92.6925 398.078 96.6509 398.078ZM112.862 400.715V369.641H116.709V383.254C118.285 380.285 120.648 378.801 123.799 378.801C126.351 378.801 128.357 379.732 129.815 381.594C131.286 383.456 132.022 386.001 132.022 389.23C132.022 392.746 131.189 395.585 129.522 397.746C127.868 399.895 125.687 400.969 122.979 400.969C120.466 400.969 118.376 400.005 116.709 398.078L116.241 400.715H112.862ZM116.709 395.422C118.689 397.193 120.577 398.078 122.374 398.078C126.071 398.078 127.92 395.259 127.92 389.621C127.92 384.647 126.28 382.16 122.999 382.16C120.85 382.16 118.754 383.326 116.709 385.656V395.422ZM148.995 397.785C146.69 399.908 144.47 400.969 142.334 400.969C140.577 400.969 139.118 400.422 137.959 399.328C136.801 398.221 136.221 396.828 136.221 395.148C136.221 392.831 137.191 391.053 139.131 389.816C141.084 388.566 143.877 387.941 147.51 387.941H148.428V385.383C148.428 382.922 147.165 381.691 144.639 381.691C142.608 381.691 140.414 382.316 138.057 383.566V380.383C140.648 379.328 143.077 378.801 145.342 378.801C147.712 378.801 149.457 379.335 150.577 380.402C151.709 381.47 152.276 383.13 152.276 385.383V394.992C152.276 397.193 152.953 398.293 154.307 398.293C154.476 398.293 154.724 398.267 155.049 398.215L155.323 400.344C154.45 400.76 153.487 400.969 152.432 400.969C150.635 400.969 149.489 399.908 148.995 397.785ZM148.428 395.695V390.207L147.139 390.168C145.03 390.168 143.324 390.572 142.022 391.379C140.72 392.173 140.069 393.221 140.069 394.523C140.069 395.448 140.394 396.229 141.045 396.867C141.696 397.505 142.491 397.824 143.428 397.824C145.03 397.824 146.696 397.115 148.428 395.695ZM160.167 400.48V369.641H164.014V400.48H160.167ZM195.909 401.203C191.898 401.203 188.669 399.816 186.221 397.043C183.786 394.257 182.569 390.578 182.569 386.008C182.569 381.411 183.793 377.74 186.241 374.992C188.702 372.232 191.983 370.852 196.084 370.852C200.173 370.852 203.448 372.225 205.909 374.973C208.37 377.72 209.6 381.385 209.6 385.969C209.6 390.643 208.37 394.354 205.909 397.102C203.448 399.836 200.114 401.203 195.909 401.203ZM195.967 398.137C198.923 398.137 201.208 397.076 202.823 394.953C204.437 392.818 205.245 389.81 205.245 385.93C205.245 382.167 204.431 379.224 202.803 377.102C201.189 374.979 198.949 373.918 196.084 373.918C193.207 373.918 190.961 374.986 189.346 377.121C187.732 379.243 186.924 382.199 186.924 385.988C186.924 389.764 187.725 392.733 189.327 394.895C190.928 397.056 193.142 398.137 195.967 398.137ZM215.479 400.48V379.27H219.327V383.254C220.85 380.285 223.064 378.801 225.967 378.801C226.358 378.801 226.768 378.833 227.198 378.898V382.492C226.534 382.271 225.948 382.16 225.44 382.16C223.005 382.16 220.967 383.605 219.327 386.496V400.48H215.479ZM231.924 407.531L232.374 404.191C234.6 405.246 236.794 405.773 238.956 405.773C243.292 405.773 245.459 403.475 245.459 398.879V395.539C244.04 398.508 241.709 399.992 238.467 399.992C235.928 399.992 233.91 399.068 232.413 397.219C230.915 395.37 230.167 392.876 230.167 389.738C230.167 386.509 231.019 383.879 232.725 381.848C234.431 379.816 236.638 378.801 239.346 378.801C241.716 378.801 243.754 379.764 245.459 381.691V379.27H249.327V394.699C249.327 398.02 249.151 400.474 248.799 402.062C248.461 403.664 247.816 404.973 246.866 405.988C245.186 407.772 242.575 408.664 239.034 408.664C236.56 408.664 234.19 408.286 231.924 407.531ZM245.459 393.137V384.328C243.767 382.57 241.924 381.691 239.932 381.691C238.161 381.691 236.775 382.401 235.772 383.82C234.769 385.24 234.268 387.186 234.268 389.66C234.268 394.309 235.902 396.633 239.17 396.633C241.397 396.633 243.493 395.467 245.459 393.137ZM267.745 397.785C265.44 399.908 263.22 400.969 261.084 400.969C259.327 400.969 257.868 400.422 256.709 399.328C255.551 398.221 254.971 396.828 254.971 395.148C254.971 392.831 255.941 391.053 257.881 389.816C259.834 388.566 262.627 387.941 266.26 387.941H267.178V385.383C267.178 382.922 265.915 381.691 263.389 381.691C261.358 381.691 259.164 382.316 256.807 383.566V380.383C259.398 379.328 261.827 378.801 264.092 378.801C266.462 378.801 268.207 379.335 269.327 380.402C270.459 381.47 271.026 383.13 271.026 385.383V394.992C271.026 397.193 271.703 398.293 273.057 398.293C273.226 398.293 273.474 398.267 273.799 398.215L274.073 400.344C273.2 400.76 272.237 400.969 271.182 400.969C269.385 400.969 268.239 399.908 267.745 397.785ZM267.178 395.695V390.207L265.889 390.168C263.78 390.168 262.074 390.572 260.772 391.379C259.47 392.173 258.819 393.221 258.819 394.523C258.819 395.448 259.144 396.229 259.795 396.867C260.446 397.505 261.241 397.824 262.178 397.824C263.78 397.824 265.446 397.115 267.178 395.695ZM278.917 400.48V379.27H282.764V383.254C284.795 380.285 287.282 378.801 290.225 378.801C292.061 378.801 293.526 379.387 294.62 380.559C295.713 381.717 296.26 383.28 296.26 385.246V400.48H292.413V386.496C292.413 384.921 292.178 383.801 291.709 383.137C291.254 382.46 290.492 382.121 289.424 382.121C287.068 382.121 284.847 383.664 282.764 386.75V400.48H278.917ZM303.76 400.48V379.27H307.608V400.48H303.76ZM303.76 375.422V371.574H307.608V375.422H303.76ZM323.604 400.969C320.739 400.969 318.363 399.908 316.475 397.785C314.587 395.663 313.643 392.987 313.643 389.758C313.643 386.307 314.574 383.618 316.436 381.691C318.311 379.764 320.922 378.801 324.268 378.801C325.922 378.801 327.771 379.029 329.815 379.484V382.707C327.64 382.069 325.87 381.75 324.502 381.75C322.536 381.75 320.954 382.492 319.756 383.977C318.571 385.448 317.979 387.414 317.979 389.875C317.979 392.258 318.591 394.185 319.815 395.656C321.039 397.128 322.64 397.863 324.62 397.863C326.377 397.863 328.187 397.414 330.049 396.516V399.836C327.562 400.591 325.414 400.969 323.604 400.969ZM355.245 400.48V374.641H344.991V371.574H369.6V374.641H359.346V400.48H355.245ZM389.346 399.797C386.768 400.578 384.561 400.969 382.725 400.969C379.6 400.969 377.048 399.934 375.069 397.863C373.103 395.78 372.12 393.085 372.12 389.777C372.12 386.561 372.986 383.924 374.717 381.867C376.462 379.81 378.689 378.781 381.397 378.781C383.962 378.781 385.941 379.693 387.334 381.516C388.741 383.339 389.444 385.93 389.444 389.289L389.424 390.48H376.045C376.605 395.52 379.073 398.039 383.448 398.039C385.049 398.039 387.015 397.609 389.346 396.75V399.797ZM376.221 387.59H385.577C385.577 383.645 384.105 381.672 381.163 381.672C378.207 381.672 376.56 383.645 376.221 387.59ZM393.975 400.48L402.042 389.523L394.209 379.27H398.78L404.971 387.434L410.577 379.27H414.327L406.983 390.031L414.971 400.48H410.401L404.014 392.082L397.842 400.48H393.975ZM427.002 400.969C425.049 400.969 423.526 400.409 422.432 399.289C421.338 398.169 420.792 396.613 420.792 394.621V382.16H418.135V379.27H420.792V375.422L424.639 375.051V379.27H430.186V382.16H424.639V393.918C424.639 396.691 425.837 398.078 428.233 398.078C428.741 398.078 429.359 397.993 430.088 397.824V400.48C428.903 400.806 427.875 400.969 427.002 400.969ZM435.596 400.48V379.27H439.444V400.48H435.596ZM435.596 375.422V371.574H439.444V375.422H435.596ZM447.159 400.48V369.641H451.006V400.48H447.159ZM474.268 399.797C471.69 400.578 469.483 400.969 467.647 400.969C464.522 400.969 461.97 399.934 459.991 397.863C458.025 395.78 457.042 393.085 457.042 389.777C457.042 386.561 457.907 383.924 459.639 381.867C461.384 379.81 463.611 378.781 466.319 378.781C468.884 378.781 470.863 379.693 472.256 381.516C473.663 383.339 474.366 385.93 474.366 389.289L474.346 390.48H460.967C461.527 395.52 463.995 398.039 468.37 398.039C469.971 398.039 471.937 397.609 474.268 396.75V399.797ZM461.143 387.59H470.499C470.499 383.645 469.027 381.672 466.084 381.672C463.129 381.672 461.482 383.645 461.143 387.59ZM499.229 401.203C497.289 401.203 494.808 400.78 491.788 399.934V395.871C495.043 397.382 497.719 398.137 499.815 398.137C501.43 398.137 502.725 397.714 503.702 396.867C504.691 396.021 505.186 394.908 505.186 393.527C505.186 392.395 504.861 391.431 504.209 390.637C503.571 389.842 502.387 388.957 500.655 387.98L498.663 386.828C496.202 385.422 494.463 384.1 493.448 382.863C492.445 381.613 491.944 380.161 491.944 378.508C491.944 376.281 492.751 374.452 494.366 373.02C495.98 371.574 498.038 370.852 500.538 370.852C502.764 370.852 505.114 371.223 507.588 371.965V375.715C504.542 374.517 502.269 373.918 500.772 373.918C499.353 373.918 498.181 374.296 497.256 375.051C496.332 375.806 495.87 376.757 495.87 377.902C495.87 378.866 496.208 379.719 496.885 380.461C497.562 381.203 498.799 382.089 500.596 383.117L502.667 384.289C505.167 385.708 506.911 387.049 507.901 388.312C508.89 389.576 509.385 391.092 509.385 392.863C509.385 395.376 508.454 397.395 506.592 398.918C504.743 400.441 502.289 401.203 499.229 401.203ZM521.612 400.969C519.659 400.969 518.135 400.409 517.042 399.289C515.948 398.169 515.401 396.613 515.401 394.621V382.16H512.745V379.27H515.401V375.422L519.249 375.051V379.27H524.795V382.16H519.249V393.918C519.249 396.691 520.446 398.078 522.842 398.078C523.35 398.078 523.969 397.993 524.698 397.824V400.48C523.513 400.806 522.484 400.969 521.612 400.969ZM541.143 397.785C538.838 399.908 536.618 400.969 534.483 400.969C532.725 400.969 531.267 400.422 530.108 399.328C528.949 398.221 528.37 396.828 528.37 395.148C528.37 392.831 529.34 391.053 531.28 389.816C533.233 388.566 536.026 387.941 539.659 387.941H540.577V385.383C540.577 382.922 539.314 381.691 536.788 381.691C534.756 381.691 532.562 382.316 530.206 383.566V380.383C532.797 379.328 535.225 378.801 537.491 378.801C539.861 378.801 541.605 379.335 542.725 380.402C543.858 381.47 544.424 383.13 544.424 385.383V394.992C544.424 397.193 545.101 398.293 546.456 398.293C546.625 398.293 546.872 398.267 547.198 398.215L547.471 400.344C546.599 400.76 545.635 400.969 544.581 400.969C542.784 400.969 541.638 399.908 541.143 397.785ZM540.577 395.695V390.207L539.288 390.168C537.178 390.168 535.472 390.572 534.17 391.379C532.868 392.173 532.217 393.221 532.217 394.523C532.217 395.448 532.543 396.229 533.194 396.867C533.845 397.505 534.639 397.824 535.577 397.824C537.178 397.824 538.845 397.115 540.577 395.695ZM552.315 400.48V379.27H556.163V383.254C558.194 380.285 560.681 378.801 563.624 378.801C565.459 378.801 566.924 379.387 568.018 380.559C569.112 381.717 569.659 383.28 569.659 385.246V400.48H565.811V386.496C565.811 384.921 565.577 383.801 565.108 383.137C564.652 382.46 563.89 382.121 562.823 382.121C560.466 382.121 558.246 383.664 556.163 386.75V400.48H552.315ZM590.772 400.48V396.496C589.209 399.478 586.853 400.969 583.702 400.969C581.15 400.969 579.138 400.038 577.667 398.176C576.208 396.314 575.479 393.768 575.479 390.539C575.479 387.01 576.306 384.172 577.959 382.023C579.626 379.875 581.814 378.801 584.522 378.801C587.035 378.801 589.118 379.764 590.772 381.691V369.641H594.639V400.48H590.772ZM590.772 384.328C588.78 382.57 586.892 381.691 585.108 381.691C581.423 381.691 579.581 384.51 579.581 390.148C579.581 395.109 581.221 397.59 584.502 397.59C586.638 397.59 588.728 396.424 590.772 394.094V384.328ZM613.292 397.785C610.987 399.908 608.767 400.969 606.631 400.969C604.874 400.969 603.415 400.422 602.256 399.328C601.097 398.221 600.518 396.828 600.518 395.148C600.518 392.831 601.488 391.053 603.428 389.816C605.381 388.566 608.174 387.941 611.807 387.941H612.725V385.383C612.725 382.922 611.462 381.691 608.936 381.691C606.905 381.691 604.711 382.316 602.354 383.566V380.383C604.945 379.328 607.374 378.801 609.639 378.801C612.009 378.801 613.754 379.335 614.874 380.402C616.006 381.47 616.573 383.13 616.573 385.383V394.992C616.573 397.193 617.25 398.293 618.604 398.293C618.773 398.293 619.021 398.267 619.346 398.215L619.62 400.344C618.747 400.76 617.784 400.969 616.729 400.969C614.932 400.969 613.786 399.908 613.292 397.785ZM612.725 395.695V390.207L611.436 390.168C609.327 390.168 607.621 390.572 606.319 391.379C605.017 392.173 604.366 393.221 604.366 394.523C604.366 395.448 604.691 396.229 605.342 396.867C605.993 397.505 606.788 397.824 607.725 397.824C609.327 397.824 610.993 397.115 612.725 395.695ZM624.463 400.48V379.27H628.311V383.254C629.834 380.285 632.048 378.801 634.952 378.801C635.342 378.801 635.752 378.833 636.182 378.898V382.492C635.518 382.271 634.932 382.16 634.424 382.16C631.989 382.16 629.952 383.605 628.311 386.496V400.48H624.463ZM654.444 400.48V396.496C652.881 399.478 650.525 400.969 647.374 400.969C644.821 400.969 642.81 400.038 641.338 398.176C639.88 396.314 639.151 393.768 639.151 390.539C639.151 387.01 639.978 384.172 641.631 382.023C643.298 379.875 645.486 378.801 648.194 378.801C650.707 378.801 652.79 379.764 654.444 381.691V369.641H658.311V400.48H654.444ZM654.444 384.328C652.452 382.57 650.564 381.691 648.78 381.691C645.095 381.691 643.252 384.51 643.252 390.148C643.252 395.109 644.893 397.59 648.174 397.59C650.31 397.59 652.4 396.424 654.444 394.094V384.328ZM686.397 403.605V406.262C683.584 404.348 681.351 401.75 679.698 398.469C678.057 395.174 677.237 391.665 677.237 387.941C677.237 384.23 678.057 380.734 679.698 377.453C681.351 374.159 683.584 371.555 686.397 369.641V372.297C684.483 374.38 683.116 376.62 682.295 379.016C681.488 381.411 681.084 384.387 681.084 387.941C681.084 391.509 681.488 394.491 682.295 396.887C683.116 399.283 684.483 401.522 686.397 403.605ZM713.292 399.699C709.789 400.702 706.736 401.203 704.131 401.203C699.535 401.203 696.006 399.895 693.545 397.277C691.097 394.66 689.874 390.91 689.874 386.027C689.874 381.236 691.117 377.512 693.604 374.855C696.091 372.186 699.581 370.852 704.073 370.852C707.015 370.852 710.075 371.288 713.252 372.16V375.949C709.268 374.595 706.215 373.918 704.092 373.918C700.967 373.918 698.539 374.979 696.807 377.102C695.088 379.224 694.229 382.212 694.229 386.066C694.229 389.882 695.153 392.85 697.002 394.973C698.851 397.082 701.443 398.137 704.776 398.137C706.143 398.137 707.621 397.896 709.209 397.414V388H713.292V399.699ZM732.12 401.203C728.109 401.203 724.88 399.816 722.432 397.043C719.997 394.257 718.78 390.578 718.78 386.008C718.78 381.411 720.004 377.74 722.452 374.992C724.913 372.232 728.194 370.852 732.295 370.852C736.384 370.852 739.659 372.225 742.12 374.973C744.581 377.72 745.811 381.385 745.811 385.969C745.811 390.643 744.581 394.354 742.12 397.102C739.659 399.836 736.325 401.203 732.12 401.203ZM732.178 398.137C735.134 398.137 737.419 397.076 739.034 394.953C740.648 392.818 741.456 389.81 741.456 385.93C741.456 382.167 740.642 379.224 739.014 377.102C737.4 374.979 735.16 373.918 732.295 373.918C729.418 373.918 727.172 374.986 725.557 377.121C723.943 379.243 723.135 382.199 723.135 385.988C723.135 389.764 723.936 392.733 725.538 394.895C727.139 397.056 729.353 398.137 732.178 398.137ZM758.448 400.48V374.641H748.194V371.574H772.803V374.641H762.549V400.48H758.448ZM782.549 401.203C780.609 401.203 778.129 400.78 775.108 399.934V395.871C778.363 397.382 781.039 398.137 783.135 398.137C784.75 398.137 786.045 397.714 787.022 396.867C788.012 396.021 788.506 394.908 788.506 393.527C788.506 392.395 788.181 391.431 787.53 390.637C786.892 389.842 785.707 388.957 783.975 387.98L781.983 386.828C779.522 385.422 777.784 384.1 776.768 382.863C775.765 381.613 775.264 380.161 775.264 378.508C775.264 376.281 776.071 374.452 777.686 373.02C779.301 371.574 781.358 370.852 783.858 370.852C786.084 370.852 788.435 371.223 790.909 371.965V375.715C787.862 374.517 785.59 373.918 784.092 373.918C782.673 373.918 781.501 374.296 780.577 375.051C779.652 375.806 779.19 376.757 779.19 377.902C779.19 378.866 779.528 379.719 780.206 380.461C780.883 381.203 782.12 382.089 783.917 383.117L785.987 384.289C788.487 385.708 790.232 387.049 791.221 388.312C792.211 389.576 792.706 391.092 792.706 392.863C792.706 395.376 791.775 397.395 789.913 398.918C788.064 400.441 785.609 401.203 782.549 401.203ZM796.163 403.605V406.262C798.975 404.348 801.202 401.75 802.842 398.469C804.496 395.174 805.323 391.665 805.323 387.941C805.323 384.23 804.496 380.734 802.842 377.453C801.202 374.159 798.975 371.555 796.163 369.641V372.297C798.077 374.38 799.437 376.62 800.245 379.016C801.065 381.411 801.475 384.387 801.475 387.941C801.475 391.509 801.065 394.491 800.245 396.887C799.437 399.283 798.077 401.522 796.163 403.605Z" fill="#B2BAA3"/>
</svg>
