<svg width="851" height="451" viewBox="0 0 851 451" fill="none" xmlns="http://www.w3.org/2000/svg">
<rect x="0.200195" y="0.722656" width="850" height="450" rx="40" fill="#F7F7F7"/>
<g clip-path="url(#clip0_3060_377)">
<path fill-rule="evenodd" clip-rule="evenodd" d="M429.7 144.9C412 118.1 382.3 101 348.1 101C293.5 101 248.7 145.2 248.7 200.4C248.7 220.2 255.4 238.5 265.2 254C258.7 240.5 254.3 225.3 254.3 209.2C254.3 153.9 297.4 110 350.9 110C381.4 110 408.8 123.7 426.5 146.5L413.4 147.6L442.1 171.8L439.1 134.4L429.7 144.9Z" fill="#00A9AF"/>
<path d="M429.7 144.9C412 118.1 382.3 101 348.1 101C293.5 101 248.7 145.2 248.7 200.4C248.7 220.2 255.4 238.5 265.2 254C258.7 240.5 254.3 225.3 254.3 209.2C254.3 153.9 297.4 110 350.9 110C381.4 110 408.8 123.7 426.5 146.5L413.4 147.6L442.1 171.8L439.1 134.4L429.7 144.9Z" stroke="#00A9AF" stroke-width="0.1875"/>
<path fill-rule="evenodd" clip-rule="evenodd" d="M416.1 168.6C402.7 145.2 378.4 130 350.1 130C307.6 130 272.8 165.1 272.8 208.9C272.8 220.9 274.6 233.2 279.2 243.4C273.1 232.1 269.6 219 269.6 205.2C269.6 161.2 304.7 126 347.8 126C377.9 126 403.7 140.7 416.1 168.6Z" fill="#B4E0E7"/>
<path d="M416.1 168.6C402.7 145.2 378.4 130 350.1 130C307.6 130 272.8 165.1 272.8 208.9C272.8 220.9 274.6 233.2 279.2 243.4C273.1 232.1 269.6 219 269.6 205.2C269.6 161.2 304.7 126 347.8 126C377.9 126 403.7 140.7 416.1 168.6Z" stroke="#B4E0E7" stroke-width="0.1875"/>
<path fill-rule="evenodd" clip-rule="evenodd" d="M272.8 207.699C272.8 207.699 275 208.599 277.1 208.799C279.6 208.999 283 208.499 288.3 207.199C291.5 206.399 296.1 204.199 296.1 204.199C296.1 204.199 286.3 206.499 280.9 206.399C275.5 206.299 273.3 205.099 273.2 204.299C273.1 203.499 274.2 199.299 279.8 194.599C285.4 189.899 288.5 187.099 297.3 181.299C306.1 175.499 316.6 168.899 321 166.399C325.4 163.899 338.3 156.999 340.6 155.799C342.9 154.599 344.5 153.799 346.4 152.999C349.3 151.799 363.2 146.499 367.4 145.499C371.4 144.499 375 143.999 380.1 143.199C385.2 142.399 390.2 142.999 390.6 144.199C391 145.399 388.5 149.099 386.3 151.599C383.8 154.599 377.2 160.999 373.1 164.299C368.9 167.699 360 174.899 357.8 176.499C355.6 178.099 372.2 169.399 383.2 159.299C388.2 154.699 397.6 145.699 393.4 141.599C388.8 137.099 375.6 140.999 372.4 141.899C369.2 142.799 358.9 146.399 353.3 148.699C347.7 150.999 339.7 154.499 336.2 155.899C332.7 157.299 319.4 163.599 316 165.299C312.6 166.899 303.7 172.199 300.8 173.999C297.9 175.699 285.8 184.199 281.4 187.899C277 191.599 273.6 195.999 273.6 195.999C273.6 195.999 271 198.899 270.7 202.799C270.6 206.699 272.8 207.699 272.8 207.699Z" fill="#B4E0E7"/>
<path d="M272.8 207.699C272.8 207.699 275 208.599 277.1 208.799C279.6 208.999 283 208.499 288.3 207.199C291.5 206.399 296.1 204.199 296.1 204.199C296.1 204.199 286.3 206.499 280.9 206.399C275.5 206.299 273.3 205.099 273.2 204.299C273.1 203.499 274.2 199.299 279.8 194.599C285.4 189.899 288.5 187.099 297.3 181.299C306.1 175.499 316.6 168.899 321 166.399C325.4 163.899 338.3 156.999 340.6 155.799C342.9 154.599 344.5 153.799 346.4 152.999C349.3 151.799 363.2 146.499 367.4 145.499C371.4 144.499 375 143.999 380.1 143.199C385.2 142.399 390.2 142.999 390.6 144.199C391 145.399 388.5 149.099 386.3 151.599C383.8 154.599 377.2 160.999 373.1 164.299C368.9 167.699 360 174.899 357.8 176.499C355.6 178.099 372.2 169.399 383.2 159.299C388.2 154.699 397.6 145.699 393.4 141.599C388.8 137.099 375.6 140.999 372.4 141.899C369.2 142.799 358.9 146.399 353.3 148.699C347.7 150.999 339.7 154.499 336.2 155.899C332.7 157.299 319.4 163.599 316 165.299C312.6 166.899 303.7 172.199 300.8 173.999C297.9 175.699 285.8 184.199 281.4 187.899C277 191.599 273.6 195.999 273.6 195.999C273.6 195.999 271 198.899 270.7 202.799C270.6 206.699 272.8 207.699 272.8 207.699Z" stroke="#B4E0E7" stroke-width="0.1875"/>
<path fill-rule="evenodd" clip-rule="evenodd" d="M291.5 156.101C291.5 156.101 292 158.401 294.9 159.601C297.8 160.801 304 160.601 308.1 159.701C312.2 158.801 314.5 158.201 317.8 157.301C321.1 156.401 325.1 154.801 328.7 153.301C332.3 151.801 337 148.301 338.1 147.401C339.2 146.601 344.3 141.701 345.3 140.601C346.3 139.501 348.4 136.601 349 134.801C349.6 133.101 348.5 129.801 348.5 129.801C348.5 129.801 349.5 132.801 347.7 135.801C345.9 138.801 339.6 143.301 338.2 144.201C336.7 145.001 326.4 150.601 324.1 151.801C321.8 153.001 314.8 156.501 312.2 157.401C309.7 158.301 307 158.701 305.6 158.901C304.1 159.001 297.8 159.901 295.9 158.301C294 156.701 293.8 155.301 294.3 154.301C294.8 153.401 293.1 153.101 292.8 153.501C292.4 154.101 291.5 156.101 291.5 156.101Z" fill="#B4E0E7"/>
<path d="M291.5 156.101C291.5 156.101 292 158.401 294.9 159.601C297.8 160.801 304 160.601 308.1 159.701C312.2 158.801 314.5 158.201 317.8 157.301C321.1 156.401 325.1 154.801 328.7 153.301C332.3 151.801 337 148.301 338.1 147.401C339.2 146.601 344.3 141.701 345.3 140.601C346.3 139.501 348.4 136.601 349 134.801C349.6 133.101 348.5 129.801 348.5 129.801C348.5 129.801 349.5 132.801 347.7 135.801C345.9 138.801 339.6 143.301 338.2 144.201C336.7 145.001 326.4 150.601 324.1 151.801C321.8 153.001 314.8 156.501 312.2 157.401C309.7 158.301 307 158.701 305.6 158.901C304.1 159.001 297.8 159.901 295.9 158.301C294 156.701 293.8 155.301 294.3 154.301C294.8 153.401 293.1 153.101 292.8 153.501C292.4 154.101 291.5 156.101 291.5 156.101Z" stroke="#B4E0E7" stroke-width="0.1875"/>
<path fill-rule="evenodd" clip-rule="evenodd" d="M314.7 137.901C314.7 137.901 313.4 143.201 312.8 148.101C312.2 153.001 311.9 155.701 312 160.001C312.1 164.301 312.6 167.101 312.8 168.701C313.1 170.301 314.9 176.201 314.9 176.201C314.9 176.201 309.4 169.501 308.4 162.701C307.6 156.901 307.8 153.701 308.8 149.701C310 145.001 313.3 137.301 313.3 137.301L314.7 137.901Z" fill="#B4E0E7"/>
<path d="M314.7 137.901C314.7 137.901 313.4 143.201 312.8 148.101C312.2 153.001 311.9 155.701 312 160.001C312.1 164.301 312.6 167.101 312.8 168.701C313.1 170.301 314.9 176.201 314.9 176.201C314.9 176.201 309.4 169.501 308.4 162.701C307.6 156.901 307.8 153.701 308.8 149.701C310 145.001 313.3 137.301 313.3 137.301L314.7 137.901Z" stroke="#B4E0E7" stroke-width="0.1875"/>
<path fill-rule="evenodd" clip-rule="evenodd" d="M315.7 137.202C315.7 137.202 326.6 141.702 330.7 143.802C334.8 145.902 337.5 147.902 339.3 149.502C341.2 151.002 343 152.502 344.5 154.302C346 156.102 347.5 158.202 347.5 158.202C347.5 158.202 346.9 153.902 344.2 150.402C341.5 146.902 338 143.602 334.5 141.602C331 139.602 327.3 138.502 324.8 138.002C322.3 137.502 317.5 136.802 316.2 136.702C314.9 136.702 313.9 136.602 313.9 136.602L315.7 137.202Z" fill="#B4E0E7"/>
<path d="M315.7 137.202C315.7 137.202 326.6 141.702 330.7 143.802C334.8 145.902 337.5 147.902 339.3 149.502C341.2 151.002 343 152.502 344.5 154.302C346 156.102 347.5 158.202 347.5 158.202C347.5 158.202 346.9 153.902 344.2 150.402C341.5 146.902 338 143.602 334.5 141.602C331 139.602 327.3 138.502 324.8 138.002C322.3 137.502 317.5 136.802 316.2 136.702C314.9 136.702 313.9 136.602 313.9 136.602L315.7 137.202Z" stroke="#B4E0E7" stroke-width="0.1875"/>
<path fill-rule="evenodd" clip-rule="evenodd" d="M318.3 135.401C318.3 135.401 330.1 135.401 337.6 136.701C345.1 138.001 346.9 138.801 350.3 140.101C353.6 141.401 361.2 145.401 364 147.401C366.8 149.401 368.7 151.101 371 153.201C373.3 155.301 376 158.201 377.7 159.901C379.3 161.601 382 165.201 382.7 166.101C383.4 167.001 384.2 168.301 384.2 168.301C384.2 168.301 382.4 164.501 380.9 161.701C375.6 151.701 365.2 144.001 363.3 142.601C361.3 141.101 355.5 137.601 347.6 135.401C342.6 134.001 337.7 133.601 335.8 133.401C333.9 133.301 326.6 133.001 323.9 133.401C322.1 133.601 316.1 133.801 316.1 133.801L318.3 135.401Z" fill="#B4E0E7"/>
<path d="M318.3 135.401C318.3 135.401 330.1 135.401 337.6 136.701C345.1 138.001 346.9 138.801 350.3 140.101C353.6 141.401 361.2 145.401 364 147.401C366.8 149.401 368.7 151.101 371 153.201C373.3 155.301 376 158.201 377.7 159.901C379.3 161.601 382 165.201 382.7 166.101C383.4 167.001 384.2 168.301 384.2 168.301C384.2 168.301 382.4 164.501 380.9 161.701C375.6 151.701 365.2 144.001 363.3 142.601C361.3 141.101 355.5 137.601 347.6 135.401C342.6 134.001 337.7 133.601 335.8 133.401C333.9 133.301 326.6 133.001 323.9 133.401C322.1 133.601 316.1 133.801 316.1 133.801L318.3 135.401Z" stroke="#B4E0E7" stroke-width="0.1875"/>
<path fill-rule="evenodd" clip-rule="evenodd" d="M299.7 148.901C299.2 149.801 294.6 156.701 292.7 161.201C290.8 165.701 289.1 172.101 288.7 175.501C288.3 178.901 287.9 184.001 288.5 188.501C289.1 193.001 289.9 196.301 290.9 200.101C291.9 203.901 293 206.501 294 208.501C295 210.501 296.6 212.601 296.6 212.601C296.6 212.601 295.3 209.801 294.5 206.501C293.7 203.101 292.7 197.501 292.4 194.801C292.1 192.101 291.6 185.401 291.6 181.801C291.6 178.201 293.8 169.301 294.6 166.701C295.4 164.101 298 157.801 300.6 153.701C303.2 149.601 307.8 143.001 309.4 140.701C311 138.401 301.8 145.701 301.5 146.201C300.8 146.901 300.2 147.901 299.7 148.901Z" fill="#B4E0E7"/>
<path d="M299.7 148.901C299.2 149.801 294.6 156.701 292.7 161.201C290.8 165.701 289.1 172.101 288.7 175.501C288.3 178.901 287.9 184.001 288.5 188.501C289.1 193.001 289.9 196.301 290.9 200.101C291.9 203.901 293 206.501 294 208.501C295 210.501 296.6 212.601 296.6 212.601C296.6 212.601 295.3 209.801 294.5 206.501C293.7 203.101 292.7 197.501 292.4 194.801C292.1 192.101 291.6 185.401 291.6 181.801C291.6 178.201 293.8 169.301 294.6 166.701C295.4 164.101 298 157.801 300.6 153.701C303.2 149.601 307.8 143.001 309.4 140.701C311 138.401 301.8 145.701 301.5 146.201C300.8 146.901 300.2 147.901 299.7 148.901Z" stroke="#B4E0E7" stroke-width="0.1875"/>
<path fill-rule="evenodd" clip-rule="evenodd" d="M318 242.8C318 242.8 337.5 261.4 369 262.3C387.9 262.9 399.9 257.3 406.5 252.7C401.9 253.5 394.6 254.2 382.9 254.4C353.5 255 324 237.5 324 237.5L333.9 233.1L299.3 219L313.5 253.8L318 242.8Z" fill="#00A9AF"/>
<path d="M318 242.8C318 242.8 337.5 261.4 369 262.3C387.9 262.9 399.9 257.3 406.5 252.7C401.9 253.5 394.6 254.2 382.9 254.4C353.5 255 324 237.5 324 237.5L333.9 233.1L299.3 219L313.5 253.8L318 242.8Z" stroke="#00A9AF" stroke-width="0.1875"/>
<path fill-rule="evenodd" clip-rule="evenodd" d="M335.7 191.1H325.5V195.8H330V203.4C329.7 203.5 329.3 203.6 328.8 203.7C328.3 203.8 327.7 203.8 326.9 203.8C324.3 203.8 322.2 202.9 320.5 201.1C318.8 199.3 318 196.6 317.9 193C318 189.3 318.9 186.5 320.7 184.7C322.5 182.9 324.8 182.1 327.6 182.1C329 182.1 330.1 182.2 331.1 182.4C332.1 182.6 332.9 182.9 333.6 183.2L334.9 178.3C334.1 177.9 333.1 177.6 331.9 177.4C330.7 177.2 329.2 177 327.7 177C324.7 177 322 177.6 319.6 178.8C317.2 180 315.3 181.8 313.9 184.2C312.5 186.6 311.8 189.5 311.8 193C311.8 195.5 312.2 197.7 312.9 199.8C313.6 201.8 314.7 203.5 316 204.8C317.3 206.1 318.9 207 320.7 207.7C322.5 208.3 324.6 208.6 327 208.6C328.8 208.6 330.5 208.4 332 208.1C333.6 207.8 334.8 207.4 335.8 207.1V191.1H335.7V191.1Z" fill="#1B1918"/>
<path d="M346.8 175.898H340.8V208.298H346.8V175.898Z" fill="#1B1918"/>
<path fill-rule="evenodd" clip-rule="evenodd" d="M365.7 197.098C365.7 199.198 365.3 200.898 364.6 202.298C363.9 203.698 362.8 204.398 361.4 204.498C359.9 204.398 358.8 203.698 358.1 202.298C357.3 200.898 357 199.198 357 197.198C357 195.998 357.1 194.898 357.4 193.798C357.7 192.698 358.2 191.798 358.8 190.998C359.5 190.298 360.3 189.898 361.4 189.898C362.4 189.898 363.2 190.298 363.9 190.998C364.5 191.698 365 192.598 365.3 193.698C365.6 194.698 365.7 195.898 365.7 197.098ZM361.5 185.398C358.4 185.398 355.9 186.398 353.9 188.498C351.9 190.498 350.9 193.398 350.9 197.198C351 200.898 351.9 203.698 353.8 205.698C355.7 207.698 358.2 208.698 361.3 208.698C363 208.698 364.7 208.298 366.2 207.498C367.8 206.698 369.1 205.398 370.1 203.698C371.1 201.998 371.7 199.698 371.7 196.798C371.7 193.298 370.7 190.598 368.9 188.498C367.2 186.598 364.7 185.498 361.5 185.398Z" fill="#1B1918"/>
<path fill-rule="evenodd" clip-rule="evenodd" d="M382.1 194.998C382.1 193.498 382.6 192.398 383.4 191.498C384.2 190.598 385.1 190.198 386.2 190.198C387.7 190.198 388.9 190.898 389.6 192.198C390.4 193.498 390.7 195.098 390.7 196.998C390.7 199.198 390.3 200.898 389.5 202.198C388.7 203.398 387.6 204.098 386.1 204.098C384.9 204.098 383.9 203.598 383.2 202.698C382.5 201.798 382.1 200.698 382.1 199.398V194.998ZM382.1 188.598V175.898H376.1V201.898C376.1 203.098 376.1 204.198 376 205.398C376 206.498 375.9 207.498 375.9 208.398H381L381.3 205.298H381.4C382.1 206.598 383 207.498 384 207.998C385 208.598 386.2 208.798 387.4 208.798C389 208.798 390.5 208.398 391.8 207.498C393.2 206.598 394.3 205.298 395.2 203.498C396.1 201.698 396.5 199.498 396.6 196.698C396.6 193.298 395.8 190.598 394.3 188.498C392.8 186.498 390.8 185.398 388.3 185.398C386.9 185.398 385.6 185.698 384.6 186.298C383.6 186.798 382.8 187.598 382.1 188.598Z" fill="#1B1918"/>
<path fill-rule="evenodd" clip-rule="evenodd" d="M411.8 200.7C411.8 201.6 411.6 202.4 411.1 203C410.6 203.6 410.2 204 409.6 204.2C409 204.5 408.5 204.6 408 204.6C407.2 204.6 406.6 204.4 406 203.9C405.5 203.4 405.2 202.6 405.1 201.6C405.1 200.5 405.5 199.7 406.1 199.1C406.7 198.5 407.6 198.1 408.6 197.9C409.6 197.7 410.6 197.6 411.7 197.6L411.8 200.7ZM417.7 194.8C417.7 193.1 417.5 191.6 416.9 190.2C416.4 188.8 415.5 187.7 414.2 186.8C412.9 185.9 411.1 185.5 408.8 185.5C407 185.5 405.5 185.7 404.2 186.1C402.9 186.5 401.8 186.9 401.1 187.4L402.2 191.3C402.9 190.8 403.8 190.5 404.7 190.2C405.7 189.9 406.7 189.8 407.7 189.8C409.3 189.8 410.4 190.2 410.9 190.9C411.5 191.6 411.7 192.6 411.7 193.7C408.1 193.7 405.1 194.4 402.9 195.8C400.7 197.2 399.5 199.3 399.4 202.2C399.4 204.1 400 205.6 401.2 206.9C402.4 208.2 404 208.8 406.1 208.9C407.4 208.9 408.5 208.7 409.5 208.2C410.5 207.7 411.4 207 412 206.1H412.1L412.5 208.4H417.9C417.8 207.7 417.7 206.9 417.6 206C417.5 205.1 417.5 204.1 417.5 203.1V194.8H417.7Z" fill="#1B1918"/>
<path d="M428.9 175.898H422.9V208.298H428.9V175.898Z" fill="#1B1918"/>
<path fill-rule="evenodd" clip-rule="evenodd" d="M449.2 191.4V182C449.4 181.9 449.8 181.9 450.3 181.8C450.8 181.8 451.3 181.7 452 181.7C452.8 181.7 453.5 181.8 454.3 182C455.1 182.2 455.8 182.7 456.3 183.4C456.8 184.1 457.1 185.1 457.2 186.4C457.2 187.9 456.7 189.1 455.7 190C454.7 190.9 453.4 191.3 451.7 191.4H449.2V191.4ZM457.7 193.6C459.2 193 460.4 192.1 461.4 190.7C462.4 189.4 462.9 187.8 463 185.8C463 183.7 462.5 182.1 461.7 180.9C460.9 179.7 459.8 178.8 458.6 178.3C457.3 177.7 456 177.4 454.7 177.2C453.4 177 452.2 177 451.2 177C449.7 177 448.2 177.1 446.8 177.2C445.4 177.3 444.2 177.5 443.2 177.7V208.3H449.1V195.7H451.1C452.5 195.7 453.6 196 454.3 196.8C455 197.6 455.6 199 456 200.9C456.4 202.8 456.7 204.4 457.1 205.6C457.4 206.9 457.7 207.7 458 208.2H464.1C463.8 207.6 463.4 206.4 463.1 204.9C462.7 203.3 462.3 201.6 461.8 199.7C461.4 198.1 460.9 196.8 460.3 195.8C459.6 194.8 458.8 194 457.7 193.6Z" fill="#1B1918"/>
<path fill-rule="evenodd" clip-rule="evenodd" d="M472.2 194.802C472.2 194.002 472.4 193.302 472.7 192.502C473 191.702 473.5 191.002 474.1 190.502C474.7 189.902 475.5 189.702 476.4 189.602C477.4 189.602 478.1 189.902 478.7 190.402C479.3 190.902 479.7 191.602 479.9 192.402C480.1 193.202 480.2 194.002 480.2 194.802H472.2ZM483.8 203.402C483 203.702 482.2 203.902 481.3 204.102C480.4 204.302 479.4 204.402 478.3 204.402C476.6 204.402 475.2 204.002 474.1 203.202C472.9 202.402 472.3 201.002 472.2 199.102H485.6C485.7 198.802 485.7 198.402 485.7 198.002C485.7 197.602 485.7 197.202 485.7 196.702C485.7 193.102 484.8 190.302 483.2 188.402C481.6 186.502 479.4 185.602 476.7 185.602C474.5 185.602 472.6 186.202 471.1 187.302C469.6 188.402 468.4 189.802 467.6 191.702C466.8 193.502 466.4 195.502 466.4 197.702C466.4 201.202 467.4 204.002 469.2 206.002C471 208.002 473.8 209.002 477.3 209.102C478.7 209.102 480 209.002 481.3 208.802C482.5 208.602 483.6 208.302 484.6 207.902L483.8 203.402Z" fill="#1B1918"/>
<path fill-rule="evenodd" clip-rule="evenodd" d="M504.3 203.301C503.8 203.501 503.3 203.701 502.7 203.801C502.1 203.901 501.4 204.001 500.7 204.001C498.9 204.001 497.5 203.401 496.4 202.201C495.3 201.001 494.7 199.301 494.7 197.101C494.7 195.101 495.2 193.401 496.3 192.101C497.3 190.801 498.8 190.101 500.7 190.101C501.5 190.101 502.2 190.201 502.8 190.301C503.4 190.401 503.8 190.601 504.2 190.801L505.2 186.201C504.7 186.001 504 185.801 503.2 185.601C502.4 185.401 501.5 185.301 500.5 185.301C498 185.301 495.9 185.901 494.1 186.901C492.3 187.901 491 189.301 490.1 191.101C489.2 192.901 488.7 194.901 488.7 197.201C488.7 200.801 489.7 203.601 491.7 205.601C493.6 207.601 496.3 208.601 499.6 208.601C500.8 208.601 501.9 208.501 502.8 208.301C503.8 208.101 504.5 207.901 505 207.601L504.3 203.301Z" fill="#1B1918"/>
<path fill-rule="evenodd" clip-rule="evenodd" d="M521.2 185.898L518.4 197.598C518.2 198.298 518.1 198.998 517.9 199.798C517.7 200.498 517.6 201.198 517.5 201.798H517.4C517.3 201.198 517.1 200.498 516.9 199.698C516.7 198.998 516.5 198.298 516.3 197.598L513 185.898H506.5L514 206.598C514.2 206.998 514.2 207.398 514.2 207.598C514.2 207.898 513.9 208.498 513.4 209.298C512.9 210.098 512.2 210.998 511.2 211.698C510.7 212.098 510.1 212.398 509.6 212.698C509.1 212.998 508.5 213.198 508.1 213.398L509.6 218.398C510.3 218.298 511.2 217.998 512.2 217.498C513.2 216.998 514.3 216.298 515.4 215.198C516.6 213.998 517.8 212.298 518.9 210.098C520 207.898 521.1 204.998 522.4 201.498L527.5 185.898H521.2Z" fill="#1B1918"/>
<path fill-rule="evenodd" clip-rule="evenodd" d="M544.7 203.301C544.2 203.501 543.7 203.701 543.1 203.801C542.5 203.901 541.8 204.001 541.1 204.001C539.4 204.001 537.9 203.401 536.8 202.201C535.7 201.001 535.1 199.301 535.1 197.101C535.1 195.101 535.6 193.401 536.7 192.101C537.7 190.801 539.2 190.101 541.1 190.101C541.9 190.101 542.6 190.201 543.2 190.301C543.8 190.401 544.2 190.601 544.6 190.801L545.6 186.201C545.1 186.001 544.4 185.801 543.6 185.601C542.8 185.401 541.9 185.301 540.9 185.301C538.4 185.301 536.3 185.901 534.6 186.901C532.8 187.901 531.5 189.301 530.6 191.101C529.7 192.901 529.2 194.901 529.2 197.201C529.2 200.801 530.2 203.601 532.2 205.601C534.1 207.601 536.8 208.601 540.1 208.601C541.3 208.601 542.4 208.501 543.3 208.301C544.3 208.101 545 207.901 545.5 207.601L544.7 203.301Z" fill="#1B1918"/>
<path d="M555.1 175.898H549.1V208.298H555.1V175.898Z" fill="#1B1918"/>
<path fill-rule="evenodd" clip-rule="evenodd" d="M565 194.802C565.1 194.002 565.2 193.302 565.5 192.502C565.8 191.702 566.3 191.002 566.9 190.502C567.5 189.902 568.3 189.702 569.2 189.602C570.2 189.602 570.9 189.902 571.5 190.402C572.1 190.902 572.5 191.602 572.7 192.402C572.9 193.202 573 194.002 573 194.802H565ZM576.6 203.402C575.8 203.702 575 203.902 574.1 204.102C573.2 204.302 572.2 204.402 571.1 204.402C569.4 204.402 568 204.002 566.9 203.202C565.7 202.402 565.1 201.002 565 199.102H578.4C578.5 198.802 578.5 198.402 578.5 198.002C578.5 197.602 578.5 197.202 578.5 196.702C578.5 193.102 577.6 190.302 576 188.402C574.4 186.502 572.2 185.602 569.5 185.602C567.3 185.602 565.4 186.202 563.9 187.302C562.4 188.402 561.2 189.802 560.4 191.702C559.6 193.502 559.2 195.502 559.2 197.702C559.2 201.202 560.2 204.002 562 206.002C563.8 208.002 566.6 209.002 570 209.102C571.4 209.102 572.7 209.002 574 208.802C575.3 208.602 576.3 208.302 577.3 207.902L576.6 203.402Z" fill="#1B1918"/>
<path fill-rule="evenodd" clip-rule="evenodd" d="M596 199.198C595.9 200.998 595.5 202.198 594.6 202.998C593.8 203.698 592.9 204.098 591.9 204.098C590.5 204.098 589.4 203.498 588.6 202.198C587.8 200.998 587.4 199.298 587.4 197.298C587.4 195.298 587.8 193.598 588.6 192.298C589.4 190.998 590.5 190.298 592 190.198C593 190.198 593.9 190.598 594.7 191.398C595.5 192.198 595.9 193.398 595.9 195.098L596 199.198ZM602 175.898H596V187.998H595.9C595.5 187.198 594.8 186.598 593.8 186.098C592.9 185.598 591.8 185.398 590.4 185.398C588.8 185.398 587.3 185.898 585.9 186.798C584.5 187.698 583.4 188.998 582.6 190.798C581.8 192.598 581.3 194.698 581.3 197.298C581.3 200.798 582.2 203.498 583.7 205.598C585.3 207.698 587.4 208.698 590 208.798C591.4 208.798 592.6 208.498 593.8 207.798C594.9 207.198 595.8 206.298 596.4 205.198H596.5L596.8 208.398H602C602 207.498 601.9 206.598 601.9 205.398C601.9 204.298 601.8 203.098 601.8 201.998V175.898H602Z" fill="#1B1918"/>
<path fill-rule="evenodd" clip-rule="evenodd" d="M412.1 213.798C411.4 213.398 410.5 213.098 409.3 212.798C408.2 212.498 406.9 212.398 405.4 212.398C402 212.498 399.4 213.298 397.5 214.998C395.6 216.698 394.7 218.798 394.7 221.398C394.7 223.398 395.4 225.198 396.7 226.598C398 228.098 399.9 229.298 402.2 230.298C403.9 230.998 405.2 231.798 406 232.598C406.8 233.398 407.2 234.298 407.2 235.398C407.2 236.598 406.8 237.498 405.9 238.198C405 238.898 403.8 239.298 402.1 239.298C400.8 239.298 399.6 239.098 398.4 238.798C397.2 238.498 396.2 238.098 395.4 237.598L394.2 242.598C395 243.098 396 243.498 397.4 243.798C398.8 244.098 400.2 244.298 401.8 244.298C405.4 244.198 408.2 243.398 410.2 241.598C412.1 239.898 413.1 237.698 413.1 234.898C413.1 232.898 412.5 231.098 411.4 229.598C410.2 228.098 408.4 226.798 405.9 225.698C404 224.898 402.7 224.098 401.8 223.398C401 222.698 400.5 221.798 400.6 220.698C400.6 219.798 401 218.998 401.7 218.298C402.4 217.598 403.6 217.298 405.2 217.198C406.5 217.198 407.6 217.398 408.5 217.698C409.4 217.998 410.2 218.298 410.7 218.598L412.1 213.798Z" fill="#1B1918"/>
<path fill-rule="evenodd" clip-rule="evenodd" d="M418.4 221.402H415.5V225.802H418.4V236.202C418.4 237.102 418.4 238.202 418.7 239.402C418.9 240.702 419.5 241.802 420.4 242.702C421.3 243.702 422.9 244.202 425 244.202C425.9 244.202 426.7 244.102 427.3 244.102C428 244.002 428.5 243.902 428.9 243.702V239.202C428.6 239.302 428.3 239.302 428 239.302C427.7 239.302 427.4 239.402 426.9 239.402C426 239.402 425.3 239.102 424.9 238.502C424.5 237.902 424.2 236.902 424.3 235.602V225.802H429.3V221.402H424.3V215.602L418.4 217.302V221.402V221.402Z" fill="#1B1918"/>
<path fill-rule="evenodd" clip-rule="evenodd" d="M444 236.1C444 237 443.8 237.8 443.3 238.4C442.9 239 442.4 239.4 441.8 239.6C441.2 239.9 440.7 240 440.2 240C439.4 240 438.8 239.8 438.2 239.3C437.7 238.8 437.4 238 437.3 237C437.3 235.9 437.7 235.1 438.3 234.5C438.9 233.9 439.8 233.5 440.8 233.3C441.8 233.1 442.8 233 443.9 233V236.1H444ZM449.8 230.3C449.8 228.6 449.6 227.1 449 225.7C448.5 224.3 447.6 223.2 446.3 222.3C445 221.4 443.2 221 440.9 221C439.1 221 437.6 221.2 436.3 221.6C435 222 433.9 222.4 433.2 222.9L434.3 226.8C435 226.3 435.9 226 436.8 225.7C437.8 225.4 438.8 225.3 439.8 225.3C441.4 225.3 442.5 225.7 443 226.4C443.6 227.1 443.8 228.1 443.8 229.2C440.2 229.2 437.2 229.9 435 231.3C432.8 232.7 431.6 234.8 431.5 237.7C431.5 239.6 432.1 241.1 433.3 242.4C434.5 243.7 436.1 244.4 438.2 244.4C439.5 244.4 440.6 244.2 441.6 243.7C442.6 243.2 443.5 242.5 444.1 241.6H444.2L444.6 243.9H450C449.9 243.2 449.8 242.4 449.7 241.5C449.6 240.6 449.6 239.6 449.6 238.6V230.3H449.8Z" fill="#1B1918"/>
<path fill-rule="evenodd" clip-rule="evenodd" d="M474.2 230.1C474.2 227 473.4 224.7 472.1 223.2C470.7 221.7 469 221 466.9 221C465.3 221 463.9 221.4 462.8 222.1C461.7 222.8 460.9 223.6 460.4 224.5H460.3L460 221.4H454.9C454.9 222.4 455 223.4 455 224.5C455 225.6 455 226.8 455 228.1V243.8H461V230.4C461.1 228.7 461.5 227.5 462.3 226.8C463.1 226.1 464 225.7 464.8 225.7C466.1 225.7 466.9 226.2 467.5 227.1C468 228 468.3 229.2 468.3 230.6V243.7H474.3V230.1H474.2Z" fill="#1B1918"/>
<path fill-rule="evenodd" clip-rule="evenodd" d="M492.9 234.598C492.8 236.398 492.4 237.598 491.5 238.398C490.7 239.098 489.8 239.498 488.8 239.498C487.4 239.498 486.3 238.898 485.5 237.598C484.7 236.398 484.3 234.698 484.3 232.698C484.3 230.698 484.7 228.998 485.5 227.698C486.3 226.398 487.4 225.698 488.9 225.598C489.9 225.598 490.8 225.998 491.6 226.798C492.4 227.598 492.8 228.798 492.8 230.498L492.9 234.598ZM498.9 211.398H492.9V223.498H492.8C492.4 222.698 491.7 222.098 490.7 221.598C489.8 221.098 488.7 220.898 487.3 220.898C485.7 220.898 484.2 221.398 482.8 222.298C481.4 223.198 480.3 224.498 479.5 226.298C478.7 228.098 478.2 230.198 478.2 232.798C478.2 236.298 479.1 238.998 480.6 241.098C482.2 243.198 484.3 244.198 486.9 244.298C488.3 244.298 489.5 243.998 490.7 243.298C491.8 242.698 492.7 241.798 493.3 240.698H493.4L493.7 243.898H498.9C498.9 242.998 498.8 242.098 498.8 240.898C498.8 239.798 498.7 238.598 498.7 237.498V211.398H498.9Z" fill="#1B1918"/>
<path fill-rule="evenodd" clip-rule="evenodd" d="M515.3 236.1C515.3 237 515.1 237.8 514.6 238.4C514.2 239 513.7 239.4 513.1 239.6C512.5 239.9 512 240 511.5 240C510.7 240 510.1 239.8 509.5 239.3C509 238.8 508.7 238 508.6 237C508.6 235.9 509 235.1 509.6 234.5C510.2 233.9 511.1 233.5 512.1 233.3C513.1 233.1 514.1 233 515.2 233V236.1H515.3ZM521.1 230.3C521.1 228.6 520.9 227.1 520.3 225.7C519.8 224.3 518.9 223.2 517.6 222.3C516.3 221.4 514.5 221 512.2 221C510.4 221 508.9 221.2 507.6 221.6C506.3 222 505.2 222.4 504.5 222.9L505.6 226.8C506.3 226.3 507.2 226 508.1 225.7C509.1 225.4 510.1 225.3 511.1 225.3C512.7 225.3 513.8 225.7 514.3 226.4C514.9 227.1 515.1 228.1 515.1 229.2C511.5 229.2 508.5 229.9 506.3 231.3C504.1 232.7 502.9 234.8 502.8 237.7C502.8 239.6 503.4 241.1 504.6 242.4C505.8 243.7 507.4 244.4 509.5 244.4C510.8 244.4 511.9 244.2 512.9 243.7C513.9 243.2 514.8 242.5 515.4 241.6H515.5L515.9 243.9H521.3C521.2 243.2 521.1 242.4 521 241.5C520.9 240.6 520.9 239.6 520.9 238.6V230.3H521.1Z" fill="#1B1918"/>
<path fill-rule="evenodd" clip-rule="evenodd" d="M538.6 220.998C538.4 220.998 538.2 220.898 538 220.898C537.8 220.898 537.6 220.898 537.3 220.898C536.2 220.898 535.2 221.298 534.1 221.998C533.1 222.698 532.3 223.798 531.7 225.298H531.5L531.3 221.398H526.2C526.2 222.398 526.3 223.498 526.3 224.598C526.3 225.698 526.3 226.998 526.4 228.398V243.798H532.4V232.198C532.4 230.298 532.9 228.898 533.8 227.898C534.7 226.998 535.8 226.498 537.2 226.498C537.5 226.498 537.8 226.498 538 226.498C538.3 226.498 538.5 226.498 538.7 226.598L538.6 220.998Z" fill="#1B1918"/>
<path fill-rule="evenodd" clip-rule="evenodd" d="M555.3 234.598C555.2 236.398 554.8 237.598 553.9 238.398C553.1 239.098 552.2 239.498 551.2 239.498C549.8 239.498 548.7 238.898 547.9 237.598C547.1 236.398 546.7 234.698 546.7 232.698C546.7 230.698 547.1 228.998 547.8 227.698C548.6 226.398 549.7 225.698 551.3 225.598C552.3 225.598 553.2 225.998 554 226.798C554.8 227.598 555.2 228.798 555.2 230.498L555.3 234.598ZM561.2 211.398H555.2V223.498H555.1C554.6 222.698 554 222.098 553 221.598C552.1 221.098 551 220.898 549.6 220.898C548 220.898 546.5 221.398 545.1 222.298C543.7 223.198 542.6 224.498 541.8 226.298C541 228.098 540.5 230.198 540.5 232.798C540.5 236.298 541.4 238.998 542.9 241.098C544.5 243.198 546.6 244.198 549.2 244.298C550.6 244.298 551.8 243.998 553 243.298C554.1 242.698 555 241.798 555.6 240.698H555.7L556 243.898H561.2C561.2 242.998 561.1 242.098 561.1 240.898C561.1 239.798 561.1 238.598 561 237.498V211.398H561.2Z" fill="#1B1918"/>
</g>
<path d="M148.345 382.199C144.842 383.202 141.789 383.703 139.185 383.703C134.588 383.703 131.06 382.395 128.599 379.777C126.151 377.16 124.927 373.41 124.927 368.527C124.927 363.736 126.17 360.012 128.657 357.355C131.144 354.686 134.634 353.352 139.126 353.352C142.069 353.352 145.129 353.788 148.306 354.66V358.449C144.321 357.095 141.268 356.418 139.146 356.418C136.021 356.418 133.592 357.479 131.86 359.602C130.142 361.724 129.282 364.712 129.282 368.566C129.282 372.382 130.207 375.35 132.056 377.473C133.905 379.582 136.496 380.637 139.829 380.637C141.196 380.637 142.674 380.396 144.263 379.914V370.5H148.345V382.199ZM155.649 382.98V352.141H159.497V382.98H155.649ZM175.513 383.469C172.479 383.469 170.057 382.466 168.247 380.461C166.437 378.443 165.532 375.747 165.532 372.375C165.532 368.964 166.437 366.268 168.247 364.289C170.07 362.297 172.537 361.301 175.649 361.301C178.761 361.301 181.222 362.297 183.032 364.289C184.855 366.268 185.767 368.951 185.767 372.336C185.767 375.799 184.855 378.521 183.032 380.5C181.209 382.479 178.703 383.469 175.513 383.469ZM175.571 380.578C179.647 380.578 181.685 377.831 181.685 372.336C181.685 366.906 179.673 364.191 175.649 364.191C171.639 364.191 169.634 366.919 169.634 372.375C169.634 377.844 171.613 380.578 175.571 380.578ZM191.782 383.215V352.141H195.63V365.754C197.205 362.785 199.569 361.301 202.72 361.301C205.272 361.301 207.277 362.232 208.735 364.094C210.207 365.956 210.942 368.501 210.942 371.73C210.942 375.246 210.109 378.085 208.442 380.246C206.789 382.395 204.608 383.469 201.899 383.469C199.386 383.469 197.297 382.505 195.63 380.578L195.161 383.215H191.782ZM195.63 377.922C197.609 379.693 199.497 380.578 201.294 380.578C204.992 380.578 206.841 377.759 206.841 372.121C206.841 367.147 205.2 364.66 201.919 364.66C199.771 364.66 197.674 365.826 195.63 368.156V377.922ZM227.915 380.285C225.61 382.408 223.39 383.469 221.255 383.469C219.497 383.469 218.039 382.922 216.88 381.828C215.721 380.721 215.142 379.328 215.142 377.648C215.142 375.331 216.112 373.553 218.052 372.316C220.005 371.066 222.798 370.441 226.431 370.441H227.349V367.883C227.349 365.422 226.086 364.191 223.56 364.191C221.528 364.191 219.334 364.816 216.978 366.066V362.883C219.569 361.828 221.997 361.301 224.263 361.301C226.632 361.301 228.377 361.835 229.497 362.902C230.63 363.97 231.196 365.63 231.196 367.883V377.492C231.196 379.693 231.873 380.793 233.228 380.793C233.397 380.793 233.644 380.767 233.97 380.715L234.243 382.844C233.371 383.26 232.407 383.469 231.353 383.469C229.556 383.469 228.41 382.408 227.915 380.285ZM227.349 378.195V372.707L226.06 372.668C223.95 372.668 222.244 373.072 220.942 373.879C219.64 374.673 218.989 375.721 218.989 377.023C218.989 377.948 219.315 378.729 219.966 379.367C220.617 380.005 221.411 380.324 222.349 380.324C223.95 380.324 225.617 379.615 227.349 378.195ZM239.087 382.98V352.141H242.935V382.98H239.087ZM263.188 382.98V354.074H271.938C274.712 354.074 276.834 354.686 278.306 355.91C279.79 357.134 280.532 358.911 280.532 361.242C280.532 365.096 278.586 367.831 274.692 369.445L284.341 382.98H279.302L271.079 370.754H267.251V382.98H263.188ZM267.251 367.688H268.579C273.735 367.688 276.313 365.663 276.313 361.613C276.313 358.632 274.152 357.141 269.829 357.141H267.251V367.688ZM304.165 382.297C301.587 383.078 299.38 383.469 297.544 383.469C294.419 383.469 291.867 382.434 289.888 380.363C287.922 378.28 286.938 375.585 286.938 372.277C286.938 369.061 287.804 366.424 289.536 364.367C291.281 362.31 293.507 361.281 296.216 361.281C298.781 361.281 300.76 362.193 302.153 364.016C303.56 365.839 304.263 368.43 304.263 371.789L304.243 372.98H290.864C291.424 378.02 293.892 380.539 298.267 380.539C299.868 380.539 301.834 380.109 304.165 379.25V382.297ZM291.04 370.09H300.396C300.396 366.145 298.924 364.172 295.981 364.172C293.026 364.172 291.379 366.145 291.04 370.09ZM319.204 383.469C316.34 383.469 313.963 382.408 312.075 380.285C310.187 378.163 309.243 375.487 309.243 372.258C309.243 368.807 310.174 366.118 312.036 364.191C313.911 362.264 316.522 361.301 319.868 361.301C321.522 361.301 323.371 361.529 325.415 361.984V365.207C323.241 364.569 321.47 364.25 320.103 364.25C318.136 364.25 316.554 364.992 315.356 366.477C314.172 367.948 313.579 369.914 313.579 372.375C313.579 374.758 314.191 376.685 315.415 378.156C316.639 379.628 318.241 380.363 320.22 380.363C321.978 380.363 323.787 379.914 325.649 379.016V382.336C323.162 383.091 321.014 383.469 319.204 383.469ZM332.661 390.695L336.099 382.98L327.896 361.77H332.056L338.13 377.746L344.614 361.77H348.247L336.665 390.695H332.661ZM360.61 383.469C357.746 383.469 355.369 382.408 353.481 380.285C351.593 378.163 350.649 375.487 350.649 372.258C350.649 368.807 351.58 366.118 353.442 364.191C355.317 362.264 357.928 361.301 361.274 361.301C362.928 361.301 364.777 361.529 366.821 361.984V365.207C364.647 364.569 362.876 364.25 361.509 364.25C359.543 364.25 357.961 364.992 356.763 366.477C355.578 367.948 354.985 369.914 354.985 372.375C354.985 374.758 355.597 376.685 356.821 378.156C358.045 379.628 359.647 380.363 361.626 380.363C363.384 380.363 365.194 379.914 367.056 379.016V382.336C364.569 383.091 362.42 383.469 360.61 383.469ZM372.837 382.98V352.141H376.685V382.98H372.837ZM399.946 382.297C397.368 383.078 395.161 383.469 393.325 383.469C390.2 383.469 387.648 382.434 385.669 380.363C383.703 378.28 382.72 375.585 382.72 372.277C382.72 369.061 383.586 366.424 385.317 364.367C387.062 362.31 389.289 361.281 391.997 361.281C394.562 361.281 396.541 362.193 397.935 364.016C399.341 365.839 400.044 368.43 400.044 371.789L400.024 372.98H386.646C387.205 378.02 389.673 380.539 394.048 380.539C395.649 380.539 397.616 380.109 399.946 379.25V382.297ZM386.821 370.09H396.177C396.177 366.145 394.705 364.172 391.763 364.172C388.807 364.172 387.16 366.145 386.821 370.09ZM420.317 382.98V378.996C418.755 381.978 416.398 383.469 413.247 383.469C410.695 383.469 408.683 382.538 407.212 380.676C405.754 378.814 405.024 376.268 405.024 373.039C405.024 369.51 405.851 366.672 407.505 364.523C409.172 362.375 411.359 361.301 414.067 361.301C416.58 361.301 418.664 362.264 420.317 364.191V352.141H424.185V382.98H420.317ZM420.317 366.828C418.325 365.07 416.437 364.191 414.653 364.191C410.968 364.191 409.126 367.01 409.126 372.648C409.126 377.609 410.767 380.09 414.048 380.09C416.183 380.09 418.273 378.924 420.317 376.594V366.828ZM450.103 383.703C448.162 383.703 445.682 383.28 442.661 382.434V378.371C445.916 379.882 448.592 380.637 450.688 380.637C452.303 380.637 453.599 380.214 454.575 379.367C455.565 378.521 456.06 377.408 456.06 376.027C456.06 374.895 455.734 373.931 455.083 373.137C454.445 372.342 453.26 371.457 451.528 370.48L449.536 369.328C447.075 367.922 445.337 366.6 444.321 365.363C443.319 364.113 442.817 362.661 442.817 361.008C442.817 358.781 443.625 356.952 445.239 355.52C446.854 354.074 448.911 353.352 451.411 353.352C453.638 353.352 455.988 353.723 458.462 354.465V358.215C455.415 357.017 453.143 356.418 451.646 356.418C450.226 356.418 449.054 356.796 448.13 357.551C447.205 358.306 446.743 359.257 446.743 360.402C446.743 361.366 447.082 362.219 447.759 362.961C448.436 363.703 449.673 364.589 451.47 365.617L453.54 366.789C456.04 368.208 457.785 369.549 458.774 370.812C459.764 372.076 460.259 373.592 460.259 375.363C460.259 377.876 459.328 379.895 457.466 381.418C455.617 382.941 453.162 383.703 450.103 383.703ZM472.485 383.469C470.532 383.469 469.009 382.909 467.915 381.789C466.821 380.669 466.274 379.113 466.274 377.121V364.66H463.618V361.77H466.274V357.922L470.122 357.551V361.77H475.669V364.66H470.122V376.418C470.122 379.191 471.32 380.578 473.716 380.578C474.224 380.578 474.842 380.493 475.571 380.324V382.98C474.386 383.306 473.358 383.469 472.485 383.469ZM492.017 380.285C489.712 382.408 487.492 383.469 485.356 383.469C483.599 383.469 482.14 382.922 480.981 381.828C479.823 380.721 479.243 379.328 479.243 377.648C479.243 375.331 480.213 373.553 482.153 372.316C484.106 371.066 486.899 370.441 490.532 370.441H491.45V367.883C491.45 365.422 490.187 364.191 487.661 364.191C485.63 364.191 483.436 364.816 481.079 366.066V362.883C483.67 361.828 486.099 361.301 488.364 361.301C490.734 361.301 492.479 361.835 493.599 362.902C494.731 363.97 495.298 365.63 495.298 367.883V377.492C495.298 379.693 495.975 380.793 497.329 380.793C497.498 380.793 497.746 380.767 498.071 380.715L498.345 382.844C497.472 383.26 496.509 383.469 495.454 383.469C493.657 383.469 492.511 382.408 492.017 380.285ZM491.45 378.195V372.707L490.161 372.668C488.052 372.668 486.346 373.072 485.044 373.879C483.742 374.673 483.091 375.721 483.091 377.023C483.091 377.948 483.416 378.729 484.067 379.367C484.718 380.005 485.513 380.324 486.45 380.324C488.052 380.324 489.718 379.615 491.45 378.195ZM503.188 382.98V361.77H507.036V365.754C509.067 362.785 511.554 361.301 514.497 361.301C516.333 361.301 517.798 361.887 518.892 363.059C519.985 364.217 520.532 365.78 520.532 367.746V382.98H516.685V368.996C516.685 367.421 516.45 366.301 515.981 365.637C515.526 364.96 514.764 364.621 513.696 364.621C511.34 364.621 509.119 366.164 507.036 369.25V382.98H503.188ZM541.646 382.98V378.996C540.083 381.978 537.726 383.469 534.575 383.469C532.023 383.469 530.011 382.538 528.54 380.676C527.082 378.814 526.353 376.268 526.353 373.039C526.353 369.51 527.179 366.672 528.833 364.523C530.5 362.375 532.687 361.301 535.396 361.301C537.909 361.301 539.992 362.264 541.646 364.191V352.141H545.513V382.98H541.646ZM541.646 366.828C539.653 365.07 537.765 364.191 535.981 364.191C532.297 364.191 530.454 367.01 530.454 372.648C530.454 377.609 532.095 380.09 535.376 380.09C537.511 380.09 539.601 378.924 541.646 376.594V366.828ZM564.165 380.285C561.86 382.408 559.64 383.469 557.505 383.469C555.747 383.469 554.289 382.922 553.13 381.828C551.971 380.721 551.392 379.328 551.392 377.648C551.392 375.331 552.362 373.553 554.302 372.316C556.255 371.066 559.048 370.441 562.681 370.441H563.599V367.883C563.599 365.422 562.336 364.191 559.81 364.191C557.778 364.191 555.584 364.816 553.228 366.066V362.883C555.819 361.828 558.247 361.301 560.513 361.301C562.882 361.301 564.627 361.835 565.747 362.902C566.88 363.97 567.446 365.63 567.446 367.883V377.492C567.446 379.693 568.123 380.793 569.478 380.793C569.647 380.793 569.894 380.767 570.22 380.715L570.493 382.844C569.621 383.26 568.657 383.469 567.603 383.469C565.806 383.469 564.66 382.408 564.165 380.285ZM563.599 378.195V372.707L562.31 372.668C560.2 372.668 558.494 373.072 557.192 373.879C555.89 374.673 555.239 375.721 555.239 377.023C555.239 377.948 555.565 378.729 556.216 379.367C556.867 380.005 557.661 380.324 558.599 380.324C560.2 380.324 561.867 379.615 563.599 378.195ZM575.337 382.98V361.77H579.185V365.754C580.708 362.785 582.922 361.301 585.825 361.301C586.216 361.301 586.626 361.333 587.056 361.398V364.992C586.392 364.771 585.806 364.66 585.298 364.66C582.863 364.66 580.825 366.105 579.185 368.996V382.98H575.337ZM605.317 382.98V378.996C603.755 381.978 601.398 383.469 598.247 383.469C595.695 383.469 593.683 382.538 592.212 380.676C590.754 378.814 590.024 376.268 590.024 373.039C590.024 369.51 590.851 366.672 592.505 364.523C594.172 362.375 596.359 361.301 599.067 361.301C601.58 361.301 603.664 362.264 605.317 364.191V352.141H609.185V382.98H605.317ZM605.317 366.828C603.325 365.07 601.437 364.191 599.653 364.191C595.968 364.191 594.126 367.01 594.126 372.648C594.126 377.609 595.767 380.09 599.048 380.09C601.183 380.09 603.273 378.924 605.317 376.594V366.828ZM637.271 386.105V388.762C634.458 386.848 632.225 384.25 630.571 380.969C628.931 377.674 628.11 374.165 628.11 370.441C628.11 366.73 628.931 363.234 630.571 359.953C632.225 356.659 634.458 354.055 637.271 352.141V354.797C635.356 356.88 633.989 359.12 633.169 361.516C632.362 363.911 631.958 366.887 631.958 370.441C631.958 374.009 632.362 376.991 633.169 379.387C633.989 381.783 635.356 384.022 637.271 386.105ZM664.165 382.199C660.662 383.202 657.609 383.703 655.005 383.703C650.409 383.703 646.88 382.395 644.419 379.777C641.971 377.16 640.747 373.41 640.747 368.527C640.747 363.736 641.991 360.012 644.478 357.355C646.965 354.686 650.454 353.352 654.946 353.352C657.889 353.352 660.949 353.788 664.126 354.66V358.449C660.142 357.095 657.088 356.418 654.966 356.418C651.841 356.418 649.412 357.479 647.681 359.602C645.962 361.724 645.103 364.712 645.103 368.566C645.103 372.382 646.027 375.35 647.876 377.473C649.725 379.582 652.316 380.637 655.649 380.637C657.017 380.637 658.494 380.396 660.083 379.914V370.5H664.165V382.199ZM671.353 382.98V354.074H680.103C682.876 354.074 684.998 354.686 686.47 355.91C687.954 357.134 688.696 358.911 688.696 361.242C688.696 365.096 686.75 367.831 682.856 369.445L692.505 382.98H687.466L679.243 370.754H675.415V382.98H671.353ZM675.415 367.688H676.743C681.899 367.688 684.478 365.663 684.478 361.613C684.478 358.632 682.316 357.141 677.993 357.141H675.415V367.688ZM702.329 383.703C700.389 383.703 697.909 383.28 694.888 382.434V378.371C698.143 379.882 700.819 380.637 702.915 380.637C704.53 380.637 705.825 380.214 706.802 379.367C707.791 378.521 708.286 377.408 708.286 376.027C708.286 374.895 707.961 373.931 707.31 373.137C706.672 372.342 705.487 371.457 703.755 370.48L701.763 369.328C699.302 367.922 697.563 366.6 696.548 365.363C695.545 364.113 695.044 362.661 695.044 361.008C695.044 358.781 695.851 356.952 697.466 355.52C699.08 354.074 701.138 353.352 703.638 353.352C705.864 353.352 708.215 353.723 710.688 354.465V358.215C707.642 357.017 705.369 356.418 703.872 356.418C702.453 356.418 701.281 356.796 700.356 357.551C699.432 358.306 698.97 359.257 698.97 360.402C698.97 361.366 699.308 362.219 699.985 362.961C700.662 363.703 701.899 364.589 703.696 365.617L705.767 366.789C708.267 368.208 710.011 369.549 711.001 370.812C711.991 372.076 712.485 373.592 712.485 375.363C712.485 377.876 711.554 379.895 709.692 381.418C707.843 382.941 705.389 383.703 702.329 383.703ZM715.942 386.105V388.762C718.755 386.848 720.981 384.25 722.622 380.969C724.276 377.674 725.103 374.165 725.103 370.441C725.103 366.73 724.276 363.234 722.622 359.953C720.981 356.659 718.755 354.055 715.942 352.141V354.797C717.856 356.88 719.217 359.12 720.024 361.516C720.845 363.911 721.255 366.887 721.255 370.441C721.255 374.009 720.845 376.991 720.024 379.387C719.217 381.783 717.856 384.022 715.942 386.105Z" fill="#B2BAA3"/>
<defs>
<clipPath id="clip0_3060_377">
<rect width="354" height="163" fill="white" transform="translate(248.2 100)"/>
</clipPath>
</defs>
</svg>
