<svg width="851" height="451" viewBox="0 0 851 451" fill="none" xmlns="http://www.w3.org/2000/svg">
<rect x="0.550293" y="0.722656" width="850" height="450" rx="40" fill="#F7F7F7"/>
<path d="M48.8511 382.98V354.074H52.9526V382.98H48.8511ZM60.5112 382.98V361.77H64.3589V365.754C66.3901 362.785 68.8771 361.301 71.8198 361.301C73.6558 361.301 75.1206 361.887 76.2144 363.059C77.3081 364.217 77.855 365.78 77.855 367.746V382.98H74.0073V368.996C74.0073 367.421 73.7729 366.301 73.3042 365.637C72.8485 364.96 72.0868 364.621 71.019 364.621C68.6623 364.621 66.4422 366.164 64.3589 369.25V382.98H60.5112ZM91.7222 383.469C89.769 383.469 88.2456 382.909 87.1519 381.789C86.0581 380.669 85.5112 379.113 85.5112 377.121V364.66H82.855V361.77H85.5112V357.922L89.3589 357.551V361.77H94.9058V364.66H89.3589V376.418C89.3589 379.191 90.5568 380.578 92.9526 380.578C93.4604 380.578 94.0789 380.493 94.8081 380.324V382.98C93.6232 383.306 92.5946 383.469 91.7222 383.469ZM115.863 382.297C113.285 383.078 111.078 383.469 109.242 383.469C106.117 383.469 103.565 382.434 101.585 380.363C99.6193 378.28 98.6362 375.585 98.6362 372.277C98.6362 369.061 99.5021 366.424 101.234 364.367C102.979 362.31 105.205 361.281 107.914 361.281C110.479 361.281 112.458 362.193 113.851 364.016C115.257 365.839 115.96 368.43 115.96 371.789L115.941 372.98H102.562C103.122 378.02 105.589 380.539 109.964 380.539C111.566 380.539 113.532 380.109 115.863 379.25V382.297ZM102.738 370.09H112.093C112.093 366.145 110.622 364.172 107.679 364.172C104.723 364.172 103.076 366.145 102.738 370.09ZM122.621 382.98V361.77H126.468V365.754C127.992 362.785 130.205 361.301 133.109 361.301C133.5 361.301 133.91 361.333 134.339 361.398V364.992C133.675 364.771 133.089 364.66 132.582 364.66C130.147 364.66 128.109 366.105 126.468 368.996V382.98H122.621ZM138.988 382.98V361.77H142.835V365.754C144.867 362.785 147.354 361.301 150.296 361.301C152.132 361.301 153.597 361.887 154.691 363.059C155.785 364.217 156.332 365.78 156.332 367.746V382.98H152.484V368.996C152.484 367.421 152.25 366.301 151.781 365.637C151.325 364.96 150.563 364.621 149.496 364.621C147.139 364.621 144.919 366.164 142.835 369.25V382.98H138.988ZM174.769 380.285C172.464 382.408 170.244 383.469 168.109 383.469C166.351 383.469 164.893 382.922 163.734 381.828C162.575 380.721 161.996 379.328 161.996 377.648C161.996 375.331 162.966 373.553 164.906 372.316C166.859 371.066 169.652 370.441 173.285 370.441H174.203V367.883C174.203 365.422 172.94 364.191 170.414 364.191C168.382 364.191 166.188 364.816 163.832 366.066V362.883C166.423 361.828 168.851 361.301 171.117 361.301C173.486 361.301 175.231 361.835 176.351 362.902C177.484 363.97 178.05 365.63 178.05 367.883V377.492C178.05 379.693 178.727 380.793 180.082 380.793C180.251 380.793 180.498 380.767 180.824 380.715L181.097 382.844C180.225 383.26 179.261 383.469 178.207 383.469C176.41 383.469 175.264 382.408 174.769 380.285ZM174.203 378.195V372.707L172.914 372.668C170.804 372.668 169.098 373.072 167.796 373.879C166.494 374.673 165.843 375.721 165.843 377.023C165.843 377.948 166.169 378.729 166.82 379.367C167.471 380.005 168.265 380.324 169.203 380.324C170.804 380.324 172.471 379.615 174.203 378.195ZM192.308 383.469C190.355 383.469 188.832 382.909 187.738 381.789C186.644 380.669 186.097 379.113 186.097 377.121V364.66H183.441V361.77H186.097V357.922L189.945 357.551V361.77H195.492V364.66H189.945V376.418C189.945 379.191 191.143 380.578 193.539 380.578C194.046 380.578 194.665 380.493 195.394 380.324V382.98C194.209 383.306 193.181 383.469 192.308 383.469ZM200.902 382.98V361.77H204.75V382.98H200.902ZM200.902 357.922V354.074H204.75V357.922H200.902ZM220.765 383.469C217.731 383.469 215.309 382.466 213.5 380.461C211.69 378.443 210.785 375.747 210.785 372.375C210.785 368.964 211.69 366.268 213.5 364.289C215.322 362.297 217.79 361.301 220.902 361.301C224.014 361.301 226.475 362.297 228.285 364.289C230.108 366.268 231.019 368.951 231.019 372.336C231.019 375.799 230.108 378.521 228.285 380.5C226.462 382.479 223.955 383.469 220.765 383.469ZM220.824 380.578C224.899 380.578 226.937 377.831 226.937 372.336C226.937 366.906 224.925 364.191 220.902 364.191C216.891 364.191 214.886 366.919 214.886 372.375C214.886 377.844 216.865 380.578 220.824 380.578ZM237.035 382.98V361.77H240.882V365.754C242.914 362.785 245.401 361.301 248.343 361.301C250.179 361.301 251.644 361.887 252.738 363.059C253.832 364.217 254.378 365.78 254.378 367.746V382.98H250.531V368.996C250.531 367.421 250.296 366.301 249.828 365.637C249.372 364.96 248.61 364.621 247.542 364.621C245.186 364.621 242.966 366.164 240.882 369.25V382.98H237.035ZM272.816 380.285C270.511 382.408 268.291 383.469 266.156 383.469C264.398 383.469 262.94 382.922 261.781 381.828C260.622 380.721 260.042 379.328 260.042 377.648C260.042 375.331 261.013 373.553 262.953 372.316C264.906 371.066 267.699 370.441 271.332 370.441H272.25V367.883C272.25 365.422 270.986 364.191 268.46 364.191C266.429 364.191 264.235 364.816 261.878 366.066V362.883C264.47 361.828 266.898 361.301 269.164 361.301C271.533 361.301 273.278 361.835 274.398 362.902C275.531 363.97 276.097 365.63 276.097 367.883V377.492C276.097 379.693 276.774 380.793 278.128 380.793C278.298 380.793 278.545 380.767 278.871 380.715L279.144 382.844C278.272 383.26 277.308 383.469 276.253 383.469C274.457 383.469 273.311 382.408 272.816 380.285ZM272.25 378.195V372.707L270.96 372.668C268.851 372.668 267.145 373.072 265.843 373.879C264.541 374.673 263.89 375.721 263.89 377.023C263.89 377.948 264.216 378.729 264.867 379.367C265.518 380.005 266.312 380.324 267.25 380.324C268.851 380.324 270.518 379.615 272.25 378.195ZM283.988 382.98V352.141H287.835V382.98H283.988ZM308.089 382.98V354.074H312.191V379.914H325.199V382.98H308.089ZM340.472 380.285C338.167 382.408 335.947 383.469 333.812 383.469C332.054 383.469 330.596 382.922 329.437 381.828C328.278 380.721 327.699 379.328 327.699 377.648C327.699 375.331 328.669 373.553 330.609 372.316C332.562 371.066 335.355 370.441 338.988 370.441H339.906V367.883C339.906 365.422 338.643 364.191 336.117 364.191C334.085 364.191 331.891 364.816 329.535 366.066V362.883C332.126 361.828 334.554 361.301 336.82 361.301C339.19 361.301 340.934 361.835 342.054 362.902C343.187 363.97 343.753 365.63 343.753 367.883V377.492C343.753 379.693 344.431 380.793 345.785 380.793C345.954 380.793 346.201 380.767 346.527 380.715L346.8 382.844C345.928 383.26 344.964 383.469 343.91 383.469C342.113 383.469 340.967 382.408 340.472 380.285ZM339.906 378.195V372.707L338.617 372.668C336.507 372.668 334.802 373.072 333.5 373.879C332.197 374.673 331.546 375.721 331.546 377.023C331.546 377.948 331.872 378.729 332.523 379.367C333.174 380.005 333.968 380.324 334.906 380.324C336.507 380.324 338.174 379.615 339.906 378.195ZM351.644 383.215V352.141H355.492V365.754C357.067 362.785 359.431 361.301 362.582 361.301C365.134 361.301 367.139 362.232 368.597 364.094C370.069 365.956 370.804 368.501 370.804 371.73C370.804 375.246 369.971 378.085 368.304 380.246C366.651 382.395 364.47 383.469 361.761 383.469C359.248 383.469 357.158 382.505 355.492 380.578L355.023 383.215H351.644ZM355.492 377.922C357.471 379.693 359.359 380.578 361.156 380.578C364.854 380.578 366.703 377.759 366.703 372.121C366.703 367.147 365.062 364.66 361.781 364.66C359.632 364.66 357.536 365.826 355.492 368.156V377.922ZM385.14 383.469C382.106 383.469 379.684 382.466 377.875 380.461C376.065 378.443 375.16 375.747 375.16 372.375C375.16 368.964 376.065 366.268 377.875 364.289C379.697 362.297 382.165 361.301 385.277 361.301C388.389 361.301 390.85 362.297 392.66 364.289C394.483 366.268 395.394 368.951 395.394 372.336C395.394 375.799 394.483 378.521 392.66 380.5C390.837 382.479 388.33 383.469 385.14 383.469ZM385.199 380.578C389.274 380.578 391.312 377.831 391.312 372.336C391.312 366.906 389.3 364.191 385.277 364.191C381.266 364.191 379.261 366.919 379.261 372.375C379.261 377.844 381.24 380.578 385.199 380.578ZM414.671 382.98V378.996C412.627 381.978 410.147 383.469 407.23 383.469C405.381 383.469 403.91 382.889 402.816 381.73C401.722 380.559 401.175 378.983 401.175 377.004V361.77H405.023V375.754C405.023 377.342 405.251 378.475 405.707 379.152C406.175 379.816 406.95 380.148 408.031 380.148C410.375 380.148 412.588 378.605 414.671 375.52V361.77H418.519V382.98H414.671ZM426.253 382.98V361.77H430.101V365.754C431.625 362.785 433.838 361.301 436.742 361.301C437.132 361.301 437.542 361.333 437.972 361.398V364.992C437.308 364.771 436.722 364.66 436.214 364.66C433.779 364.66 431.742 366.105 430.101 368.996V382.98H426.253ZM466.8 383.703C462.79 383.703 459.561 382.316 457.113 379.543C454.678 376.757 453.46 373.078 453.46 368.508C453.46 363.911 454.684 360.24 457.132 357.492C459.593 354.732 462.875 353.352 466.976 353.352C471.065 353.352 474.339 354.725 476.8 357.473C479.261 360.22 480.492 363.885 480.492 368.469C480.492 373.143 479.261 376.854 476.8 379.602C474.339 382.336 471.006 383.703 466.8 383.703ZM466.859 380.637C469.815 380.637 472.1 379.576 473.714 377.453C475.329 375.318 476.136 372.31 476.136 368.43C476.136 364.667 475.322 361.724 473.695 359.602C472.08 357.479 469.841 356.418 466.976 356.418C464.098 356.418 461.852 357.486 460.238 359.621C458.623 361.743 457.816 364.699 457.816 368.488C457.816 372.264 458.617 375.233 460.218 377.395C461.82 379.556 464.033 380.637 466.859 380.637ZM486.371 382.98V361.77H490.218V365.754C491.742 362.785 493.955 361.301 496.859 361.301C497.25 361.301 497.66 361.333 498.089 361.398V364.992C497.425 364.771 496.839 364.66 496.332 364.66C493.897 364.66 491.859 366.105 490.218 368.996V382.98H486.371ZM502.816 390.031L503.265 386.691C505.492 387.746 507.686 388.273 509.847 388.273C514.183 388.273 516.351 385.975 516.351 381.379V378.039C514.932 381.008 512.601 382.492 509.359 382.492C506.82 382.492 504.802 381.568 503.304 379.719C501.807 377.87 501.058 375.376 501.058 372.238C501.058 369.009 501.911 366.379 503.617 364.348C505.322 362.316 507.529 361.301 510.238 361.301C512.608 361.301 514.645 362.264 516.351 364.191V361.77H520.218V377.199C520.218 380.52 520.042 382.974 519.691 384.562C519.352 386.164 518.708 387.473 517.757 388.488C516.078 390.272 513.467 391.164 509.925 391.164C507.451 391.164 505.082 390.786 502.816 390.031ZM516.351 375.637V366.828C514.658 365.07 512.816 364.191 510.824 364.191C509.053 364.191 507.666 364.901 506.664 366.32C505.661 367.74 505.16 369.686 505.16 372.16C505.16 376.809 506.794 379.133 510.062 379.133C512.289 379.133 514.385 377.967 516.351 375.637ZM538.636 380.285C536.332 382.408 534.111 383.469 531.976 383.469C530.218 383.469 528.76 382.922 527.601 381.828C526.442 380.721 525.863 379.328 525.863 377.648C525.863 375.331 526.833 373.553 528.773 372.316C530.726 371.066 533.519 370.441 537.152 370.441H538.07V367.883C538.07 365.422 536.807 364.191 534.281 364.191C532.25 364.191 530.056 364.816 527.699 366.066V362.883C530.29 361.828 532.718 361.301 534.984 361.301C537.354 361.301 539.098 361.835 540.218 362.902C541.351 363.97 541.917 365.63 541.917 367.883V377.492C541.917 379.693 542.595 380.793 543.949 380.793C544.118 380.793 544.365 380.767 544.691 380.715L544.964 382.844C544.092 383.26 543.128 383.469 542.074 383.469C540.277 383.469 539.131 382.408 538.636 380.285ZM538.07 378.195V372.707L536.781 372.668C534.671 372.668 532.966 373.072 531.664 373.879C530.361 374.673 529.71 375.721 529.71 377.023C529.71 377.948 530.036 378.729 530.687 379.367C531.338 380.005 532.132 380.324 533.07 380.324C534.671 380.324 536.338 379.615 538.07 378.195ZM549.808 382.98V361.77H553.656V365.754C555.687 362.785 558.174 361.301 561.117 361.301C562.953 361.301 564.417 361.887 565.511 363.059C566.605 364.217 567.152 365.78 567.152 367.746V382.98H563.304V368.996C563.304 367.421 563.07 366.301 562.601 365.637C562.145 364.96 561.384 364.621 560.316 364.621C557.959 364.621 555.739 366.164 553.656 369.25V382.98H549.808ZM574.652 382.98V361.77H578.5V382.98H574.652ZM574.652 357.922V354.074H578.5V357.922H574.652ZM584.769 382.98V380.09L597.894 364.66H585.375V361.77H602.64V364.66L589.515 380.09H602.894V382.98H584.769ZM620.082 380.285C617.777 382.408 615.557 383.469 613.421 383.469C611.664 383.469 610.205 382.922 609.046 381.828C607.888 380.721 607.308 379.328 607.308 377.648C607.308 375.331 608.278 373.553 610.218 372.316C612.171 371.066 614.964 370.441 618.597 370.441H619.515V367.883C619.515 365.422 618.252 364.191 615.726 364.191C613.695 364.191 611.501 364.816 609.144 366.066V362.883C611.735 361.828 614.164 361.301 616.429 361.301C618.799 361.301 620.544 361.835 621.664 362.902C622.796 363.97 623.363 365.63 623.363 367.883V377.492C623.363 379.693 624.04 380.793 625.394 380.793C625.563 380.793 625.811 380.767 626.136 380.715L626.41 382.844C625.537 383.26 624.574 383.469 623.519 383.469C621.722 383.469 620.576 382.408 620.082 380.285ZM619.515 378.195V372.707L618.226 372.668C616.117 372.668 614.411 373.072 613.109 373.879C611.807 374.673 611.156 375.721 611.156 377.023C611.156 377.948 611.481 378.729 612.132 379.367C612.783 380.005 613.578 380.324 614.515 380.324C616.117 380.324 617.783 379.615 619.515 378.195ZM637.621 383.469C635.667 383.469 634.144 382.909 633.05 381.789C631.957 380.669 631.41 379.113 631.41 377.121V364.66H628.753V361.77H631.41V357.922L635.257 357.551V361.77H640.804V364.66H635.257V376.418C635.257 379.191 636.455 380.578 638.851 380.578C639.359 380.578 639.977 380.493 640.707 380.324V382.98C639.522 383.306 638.493 383.469 637.621 383.469ZM646.214 382.98V361.77H650.062V382.98H646.214ZM646.214 357.922V354.074H650.062V357.922H646.214ZM666.078 383.469C663.044 383.469 660.622 382.466 658.812 380.461C657.002 378.443 656.097 375.747 656.097 372.375C656.097 368.964 657.002 366.268 658.812 364.289C660.635 362.297 663.102 361.301 666.214 361.301C669.326 361.301 671.787 362.297 673.597 364.289C675.42 366.268 676.332 368.951 676.332 372.336C676.332 375.799 675.42 378.521 673.597 380.5C671.774 382.479 669.268 383.469 666.078 383.469ZM666.136 380.578C670.212 380.578 672.25 377.831 672.25 372.336C672.25 366.906 670.238 364.191 666.214 364.191C662.204 364.191 660.199 366.919 660.199 372.375C660.199 377.844 662.178 380.578 666.136 380.578ZM682.347 382.98V361.77H686.195V365.754C688.226 362.785 690.713 361.301 693.656 361.301C695.492 361.301 696.957 361.887 698.05 363.059C699.144 364.217 699.691 365.78 699.691 367.746V382.98H695.843V368.996C695.843 367.421 695.609 366.301 695.14 365.637C694.684 364.96 693.923 364.621 692.855 364.621C690.498 364.621 688.278 366.164 686.195 369.25V382.98H682.347ZM727.562 386.105V388.762C724.75 386.848 722.516 384.25 720.863 380.969C719.222 377.674 718.402 374.165 718.402 370.441C718.402 366.73 719.222 363.234 720.863 359.953C722.516 356.659 724.75 354.055 727.562 352.141V354.797C725.648 356.88 724.281 359.12 723.46 361.516C722.653 363.911 722.25 366.887 722.25 370.441C722.25 374.009 722.653 376.991 723.46 379.387C724.281 381.783 725.648 384.022 727.562 386.105ZM732.718 382.98V354.074H736.82V382.98H732.718ZM744.261 382.98V354.074H748.363V379.914H761.371V382.98H744.261ZM777.23 383.703C773.22 383.703 769.99 382.316 767.542 379.543C765.108 376.757 763.89 373.078 763.89 368.508C763.89 363.911 765.114 360.24 767.562 357.492C770.023 354.732 773.304 353.352 777.406 353.352C781.494 353.352 784.769 354.725 787.23 357.473C789.691 360.22 790.921 363.885 790.921 368.469C790.921 373.143 789.691 376.854 787.23 379.602C784.769 382.336 781.436 383.703 777.23 383.703ZM777.289 380.637C780.244 380.637 782.529 379.576 784.144 377.453C785.759 375.318 786.566 372.31 786.566 368.43C786.566 364.667 785.752 361.724 784.125 359.602C782.51 357.479 780.27 356.418 777.406 356.418C774.528 356.418 772.282 357.486 770.667 359.621C769.053 361.743 768.246 364.699 768.246 368.488C768.246 372.264 769.046 375.233 770.648 377.395C772.25 379.556 774.463 380.637 777.289 380.637ZM794.398 386.105V388.762C797.21 386.848 799.437 384.25 801.078 380.969C802.731 377.674 803.558 374.165 803.558 370.441C803.558 366.73 802.731 363.234 801.078 359.953C799.437 356.659 797.21 354.055 794.398 352.141V354.797C796.312 356.88 797.673 359.12 798.48 361.516C799.3 363.911 799.71 366.887 799.71 370.441C799.71 374.009 799.3 376.991 798.48 379.387C797.673 381.783 796.312 384.022 794.398 386.105Z" fill="#B2BAA3"/>
<path d="M365.418 136.845C364.415 138.602 364.164 139.103 364.164 139.103C363.411 140.609 361.906 141.361 360.15 140.609L357.641 139.605C356.136 139.103 354.631 139.856 353.878 141.361L351.62 146.88C351.119 148.386 351.871 149.891 353.377 150.643L355.885 151.647C357.39 152.4 358.143 153.905 357.892 155.41L356.638 161.431C356.387 163.187 354.882 164.191 353.377 164.191H350.868C349.112 164.191 348.108 165.445 347.857 166.95L347.606 172.72C347.606 174.476 348.861 175.48 350.366 175.731H353.126C354.882 175.731 356.136 177.236 356.136 178.49L356.889 184.511C357.14 186.267 356.136 187.522 354.631 188.274L351.871 189.278C350.366 189.78 349.613 191.536 349.864 192.79L352.373 201.069L367.927 196.302C354.631 163.94 370.185 127.061 402.297 113.765C407.314 111.507 412.582 110.253 417.851 109.5L414.589 93.6953L406.06 95.7023C404.304 96.204 403.551 97.7093 403.802 99.2145L404.555 101.974C404.805 103.73 404.053 105.235 402.297 105.737L396.777 107.995C395.272 108.748 393.516 107.995 392.513 106.741L390.757 104.483C389.753 102.978 388.248 102.727 386.743 103.479L381.725 106.239C380.22 107.242 379.718 108.748 380.722 110.253L382.227 112.511C382.979 114.016 382.729 115.772 381.474 116.776L376.959 120.79C375.704 122.044 373.948 122.044 372.694 121.04L370.436 119.033C369.181 118.03 367.425 118.281 366.422 119.535L362.91 124.302C361.906 125.556 362.157 127.312 363.411 128.316L365.669 130.323C366.924 131.326 367.175 133.082 366.422 134.588C366.673 134.588 366.422 135.089 365.418 136.845Z" fill="#3A4D98"/>
<path d="M425.879 241.209C427.886 241.209 428.388 241.209 428.388 241.209C430.144 241.209 431.398 242.464 431.649 243.718L432.151 246.478C432.401 248.234 433.907 248.986 435.412 248.736L441.182 247.732C442.938 247.481 443.691 245.976 443.44 244.471L442.938 241.962C442.687 240.206 443.691 238.701 445.196 238.199L450.966 236.192C452.471 235.69 454.227 236.192 454.98 237.697L456.485 240.206C457.238 241.711 458.994 242.213 460.499 241.46L465.517 238.701C467.022 237.948 467.524 236.443 466.771 234.938L465.266 232.429C464.513 230.924 465.015 229.167 466.269 228.164L471.036 224.652C472.29 223.648 474.046 223.648 475.301 224.652L477.559 226.659C478.813 227.913 480.569 227.662 481.573 226.659L487.593 220.136L475.552 209.098C454.227 236.694 414.59 241.962 386.743 220.387C382.478 217.126 378.715 213.362 375.453 209.098L363.662 220.136L369.934 226.659C371.189 227.913 372.694 227.913 373.948 226.91L376.206 224.903C377.46 223.899 379.216 223.899 380.471 224.903L385.237 228.415C386.743 229.418 386.994 231.174 386.241 232.68L384.736 235.188C383.983 236.694 384.485 238.199 385.99 239.202L391.258 241.711C392.764 242.464 394.269 241.962 395.021 240.457L396.527 237.948C397.279 236.443 399.035 235.69 400.541 236.443L406.311 238.45C408.067 238.951 408.819 240.708 408.569 242.213L408.067 244.972C407.816 246.729 408.819 247.983 410.325 248.234L416.095 249.237C417.851 249.488 419.105 248.485 419.356 246.979L419.858 244.22C420.109 242.464 421.614 241.46 423.119 241.711C423.37 241.209 423.872 241.209 425.879 241.209Z" fill="#3A4D98"/>
<path d="M486.088 136.845C485.085 135.089 484.583 134.588 484.583 134.588C483.579 133.082 483.83 131.577 485.336 130.323L487.593 128.316C488.848 127.312 488.848 125.807 488.095 124.553L484.583 120.037C483.579 118.783 481.823 118.532 480.569 119.535L478.311 121.542C477.057 122.546 475.301 122.546 474.046 121.291L469.28 117.026C468.025 116.023 467.524 114.267 468.527 112.762L470.283 110.504C471.287 108.999 470.785 107.493 469.28 106.49L464.262 103.479C462.757 102.476 461.252 102.978 460.248 104.483L458.492 106.741C457.489 108.246 455.983 108.748 454.227 107.995L448.708 105.737C447.203 105.235 446.45 103.479 446.45 101.974L447.203 99.2145C447.956 97.2075 446.701 95.7023 445.196 95.2005L436.666 93.6953L433.154 109.5C467.774 114.267 492.109 146.128 487.343 180.748C486.59 186.267 485.085 191.536 483.078 196.302L498.632 201.069L501.141 192.79C501.642 191.285 500.639 189.78 499.134 189.278L496.374 188.274C494.618 187.773 493.865 186.016 494.116 184.511L494.869 178.49C495.12 176.734 496.374 175.731 497.879 175.48H500.639C502.395 175.48 503.398 173.975 503.398 172.72V166.699C503.398 164.943 501.893 163.94 500.388 163.94H497.628C495.872 163.94 494.618 162.685 494.367 161.18L493.363 155.41C493.113 153.654 493.865 152.149 495.37 151.647L497.879 150.643C499.384 150.142 500.137 148.386 499.635 146.88L497.628 141.361C497.127 139.856 495.37 139.103 493.865 139.605L491.106 140.609C489.6 141.11 487.844 140.358 487.092 138.852C487.343 139.103 486.841 138.351 486.088 136.845Z" fill="#3A4D98"/>
<path d="M360.15 102.728C362.408 101.473 364.164 100.47 366.422 100.219C382.227 95.7033 381.474 90.1841 387.997 87.1736L387.746 86.6719C385.99 87.6754 384.234 88.428 382.227 88.428C363.662 88.428 365.168 98.9646 360.15 102.728Z" fill="#3A4D98"/>
<path d="M341.836 123.048C344.094 120.79 346.854 119.034 350.115 118.03C364.917 113.766 369.934 103.982 373.948 101.222L373.697 100.971C368.178 104.734 361.906 100.971 350.868 112.511H350.366C359.398 101.724 359.648 94.4484 363.662 90.4345L363.411 90.1836C337.572 105.738 348.861 114.267 341.836 123.048Z" fill="#3A4D98"/>
<path d="M342.84 105.238C318.505 129.322 333.558 135.594 329.794 147.636H330.045C331.801 144.374 334.561 141.615 338.073 140.36C348.61 135.594 351.871 123.552 355.885 120.04H355.634C350.617 125.559 342.087 122.298 335.565 136.096L335.063 135.845C340.582 124.054 337.822 113.266 343.091 105.991C343.091 105.489 343.091 105.238 342.84 105.238Z" fill="#3A4D98"/>
<path d="M325.028 179.998H325.53C325.279 175.231 327.286 170.465 330.798 167.454C342.338 156.667 340.582 147.134 345.349 139.607L345.098 139.357C341.335 145.879 327.787 152.653 327.035 162.437C326.784 162.437 326.784 162.437 326.533 162.437C328.54 148.388 321.014 139.106 325.028 130.325L324.777 130.074C309.474 162.186 322.268 161.684 325.028 179.998Z" fill="#3A4D98"/>
<path d="M331.3 210.35H331.802C328.791 203.326 334.059 193.291 334.059 192.789C341.084 178.991 338.826 166.698 340.582 162.434H340.331C336.568 171.967 326.031 176.984 327.788 192.789H326.784C325.028 182.503 313.99 172.97 314.24 162.434H313.99C307.216 200.315 327.035 200.065 331.3 210.35Z" fill="#3A4D98"/>
<path d="M346.854 238.45C343.091 233.432 341.335 227.16 342.589 220.889C345.851 201.822 339.83 198.561 339.579 190.031H339.328C339.077 199.564 329.042 210.352 338.073 223.648L337.823 224.15C328.039 209.85 320.261 213.112 315.495 199.063C315.244 199.063 315.244 199.063 314.993 199.063C322.018 240.708 340.582 228.164 346.854 238.45Z" fill="#3A4D98"/>
<path d="M385.237 256.514V256.012C372.192 258.521 365.669 256.012 363.411 244.221C360.15 227.663 348.61 220.89 347.606 214.367H347.356C349.613 226.158 344.094 233.183 358.394 247.232L357.641 247.733C343.843 236.695 334.561 240.96 329.293 233.183L328.791 233.684C345.599 262.033 363.913 263.538 385.237 256.514Z" fill="#3A4D98"/>
<path d="M353.376 261.278C370.687 271.313 389 257.013 411.077 256.512C416.596 256.512 433.154 257.515 448.206 275.076L444.192 276.331C439.175 267.55 431.398 261.278 424.373 259.522C404.304 254.505 404.053 273.32 381.725 273.571C365.167 273.822 353.627 262.031 353.376 261.278Z" fill="#3A4D98"/>
<path d="M491.106 102.728C488.848 101.473 487.092 100.47 484.834 100.219C469.029 95.7033 469.781 90.1841 463.259 87.1736L463.51 86.6719C465.266 87.6754 467.022 88.428 469.28 88.428C487.844 88.428 486.339 98.9646 491.106 102.728Z" fill="#3A4D98"/>
<path d="M509.67 123.049C507.412 120.791 504.653 119.035 501.391 118.031C486.59 113.767 481.573 103.982 477.559 101.223L477.809 100.972C483.329 104.735 489.6 100.972 500.639 112.512L501.141 112.261C492.109 101.474 492.109 94.1984 487.844 90.1845L488.095 89.9336C513.935 105.739 502.395 114.268 509.67 123.049Z" fill="#3A4D98"/>
<path d="M508.416 105.238C532.751 129.322 517.698 135.594 521.461 147.636H521.21C519.454 144.374 516.695 141.615 513.183 140.36C502.646 135.594 499.635 123.552 495.371 120.04L495.621 119.789C500.639 125.308 509.169 122.047 515.691 135.845L516.193 135.594C510.674 123.803 513.433 113.015 508.165 105.74L508.416 105.238Z" fill="#3A4D98"/>
<path d="M526.228 179.998H525.726C525.977 175.231 523.97 170.465 520.458 167.454C508.918 156.667 510.674 147.134 505.907 139.607L506.409 139.357C510.172 145.879 523.719 152.653 524.221 162.437C524.472 162.437 524.472 162.437 524.723 162.437C522.716 148.388 530.242 139.106 526.228 130.325L526.73 130.074C542.033 162.186 528.988 161.684 526.228 179.998Z" fill="#3A4D98"/>
<path d="M520.207 210.35H519.705C522.716 203.326 517.447 193.291 517.447 192.789C510.423 178.991 512.681 166.698 510.925 162.434H511.175C514.939 171.967 525.475 176.984 523.719 192.789H524.221C525.977 182.754 537.015 173.221 536.514 162.684H537.015C544.04 200.315 524.221 200.065 520.207 210.35Z" fill="#3A4D98"/>
<path d="M504.402 238.45C508.165 233.432 509.921 227.16 508.667 220.889C505.405 201.822 511.426 198.561 511.677 190.031H511.928C512.179 199.564 522.214 210.352 513.182 223.648L513.684 223.899C523.468 209.599 531.245 212.861 536.012 198.812C536.263 198.812 536.263 198.812 536.514 198.812C529.238 240.708 510.925 228.164 504.402 238.45Z" fill="#3A4D98"/>
<path d="M466.269 256.514V256.012C479.064 258.521 485.837 256.012 488.095 244.221C491.357 227.663 502.897 220.89 503.9 214.367H504.151C501.893 226.158 507.412 233.183 493.113 247.232L493.614 247.482C507.412 236.444 516.695 240.709 521.963 232.932L522.214 233.183C505.656 262.033 487.593 263.538 466.269 256.514Z" fill="#3A4D98"/>
<path d="M497.879 261.278C480.569 271.313 462.255 257.013 440.178 256.512C434.659 256.512 418.102 257.515 403.049 275.076L407.063 276.331C412.081 267.55 419.858 261.278 426.882 259.522C446.952 254.505 447.203 273.32 469.531 273.571C486.339 273.822 497.628 262.031 497.879 261.278Z" fill="#3A4D98"/>
<path d="M452.722 136.094C443.691 136.345 435.914 141.864 432.652 150.143C430.645 155.16 430.144 160.679 430.395 165.697C430.144 171.216 430.896 176.484 432.652 181.251C436.416 190.031 444.193 196.052 452.471 196.052H452.722C460.75 196.052 468.527 190.031 472.541 181.251C474.548 176.233 475.05 170.714 474.799 165.697C475.05 160.178 474.297 154.909 472.541 150.143C469.28 141.864 461.503 136.345 452.722 136.094ZM465.266 165.948C465.266 171.216 465.015 175.732 465.015 175.732C464.764 179.996 464.513 184.261 462.757 187.021C460.499 190.031 456.987 192.038 453.224 192.038H452.973H452.722H452.471C448.708 192.038 445.196 190.031 442.938 187.021C440.931 184.261 440.68 179.996 440.68 175.732C440.68 175.732 440.68 171.216 440.68 165.948V165.697C440.68 160.428 440.68 155.913 440.68 155.913C440.931 151.648 441.182 147.383 442.938 144.623C445.196 141.613 448.708 139.606 452.471 139.606H452.722H453.224H453.475C457.238 139.606 460.75 141.613 463.008 144.623C465.015 147.383 465.266 151.648 465.266 155.913C465.266 155.913 465.266 160.428 465.517 165.446L465.266 165.948Z" fill="#3A4D98"/>
<path d="M458.743 198.81C457.74 201.319 456.234 203.577 454.227 205.333C452.471 206.587 450.464 207.34 448.207 207.34L428.388 208.093H423.872C421.865 208.093 420.611 206.587 420.36 205.082V134.838C420.611 132.831 422.116 131.576 423.872 131.576H428.388V127.562H401.544V131.576H406.06C406.06 131.576 409.321 131.827 409.572 134.838V205.082C409.321 208.093 406.06 208.343 406.06 208.343H401.544V212.357H428.388H457.489L461.001 199.312V198.81H458.743Z" fill="#3A4D98"/>
<path d="M396.025 143.619C396.276 141.11 398.785 140.859 398.785 140.859H402.548V137.598H380.22V140.859H383.983C383.983 140.859 386.743 141.11 386.743 143.619V188.525C386.492 190.03 385.237 191.284 383.983 191.284H380.471V194.546H402.799V191.284H399.035C397.279 191.284 396.276 190.03 396.276 188.525C396.025 188.525 396.025 143.619 396.025 143.619Z" fill="#3A4D98"/>
</svg>
